<svg xmlns="http://www.w3.org/2000/svg" width="27" height="28" viewBox="0 0 27 28" fill="none">
  <path d="M13.3333 0.989746C11.5824 0.989746 9.84856 1.33462 8.23089 2.00469C6.61321 2.67475 5.14336 3.65687 3.90524 4.89499C1.40476 7.39547 0 10.7869 0 14.3231C0 20.2164 3.82667 25.2164 9.12 26.9897C9.78667 27.0964 10 26.6831 10 26.3231V24.0697C6.30667 24.8697 5.52 22.2831 5.52 22.2831C4.90667 20.7364 4.04 20.3231 4.04 20.3231C2.82667 19.4964 4.13333 19.5231 4.13333 19.5231C5.46667 19.6164 6.17333 20.8964 6.17333 20.8964C7.33333 22.9231 9.29333 22.3231 10.0533 22.0031C10.1733 21.1364 10.52 20.5497 10.8933 20.2164C7.93333 19.8831 4.82667 18.7364 4.82667 13.6564C4.82667 12.1764 5.33333 10.9897 6.2 10.0431C6.06667 9.70975 5.6 8.32308 6.33333 6.52308C6.33333 6.52308 7.45333 6.16308 10 7.88308C11.0533 7.58975 12.2 7.44308 13.3333 7.44308C14.4667 7.44308 15.6133 7.58975 16.6667 7.88308C19.2133 6.16308 20.3333 6.52308 20.3333 6.52308C21.0667 8.32308 20.6 9.70975 20.4667 10.0431C21.3333 10.9897 21.84 12.1764 21.84 13.6564C21.84 18.7497 18.72 19.8697 15.7467 20.2031C16.2267 20.6164 16.6667 21.4297 16.6667 22.6697V26.3231C16.6667 26.6831 16.88 27.1097 17.56 26.9897C22.8533 25.2031 26.6667 20.2164 26.6667 14.3231C26.6667 12.5721 26.3218 10.8383 25.6517 9.22063C24.9817 7.60296 23.9995 6.1331 22.7614 4.89499C21.5233 3.65687 20.0535 2.67475 18.4358 2.00469C16.8181 1.33462 15.0843 0.989746 13.3333 0.989746Z" fill="white"/>
</svg>