<svg xmlns="http://www.w3.org/2000/svg" width="33" height="32" viewBox="0 0 33 32" fill="none">
  <path d="M25.1667 0H8.16675C4.02461 0 0.666748 3.35786 0.666748 7.5V24.5C0.666748 28.6421 4.02461 32 8.16675 32H25.1667C29.3089 32 32.6667 28.6421 32.6667 24.5V7.5C32.6667 3.35786 29.3089 0 25.1667 0Z" fill="#F4F2ED"/>
  <path d="M5.87125 25.3799H9.8485V15.7207L4.16675 11.4595V23.6754C4.16675 24.6185 4.931 25.3799 5.87125 25.3799Z" fill="#4285F4"/>
  <path d="M23.4849 25.3799H27.4622C28.4054 25.3799 29.1667 24.6156 29.1667 23.6754V11.4594L23.4849 15.7207" fill="#34A853"/>
  <path d="M23.4849 8.33438V15.7207L29.1667 11.4594V9.1865C29.1667 7.07862 26.7605 5.87688 25.0759 7.14113" fill="#FBBC04"/>
  <path d="M9.8485 15.7207L9.84862 8.3345L16.6667 13.4479L23.4849 8.33438V15.7207L16.6667 20.8344" fill="#EA4335"/>
  <path d="M4.16675 9.18662V11.4595L9.8485 15.7207L9.84862 8.3345L8.25762 7.14125C6.57012 5.877 4.16675 7.07875 4.16675 9.18662Z" fill="#C5221F"/>
</svg>