<svg xmlns="http://www.w3.org/2000/svg" width="17" height="16" viewBox="0 0 17 16" fill="none">
  <path d="M13.2266 0H4.72656C2.65549 0 0.976562 1.67893 0.976562 3.75V12.25C0.976562 14.3211 2.65549 16 4.72656 16H13.2266C15.2976 16 16.9766 14.3211 16.9766 12.25V3.75C16.9766 1.67893 15.2976 0 13.2266 0Z" fill="#242938"/>
  <path d="M3.22656 11.0875C3.22656 11.1437 3.17656 11.1812 3.13281 11.1812H2.45156C2.39531 11.1812 2.35156 11.1437 2.35156 11.0875V4.9125C2.35156 4.875 2.40156 4.825 2.45156 4.825H3.12656C3.17656 4.825 3.22031 4.875 3.22031 4.9125L3.22656 11.0875ZM4.99531 11.0875C4.99531 11.1437 4.94531 11.1812 4.90156 11.1812H4.22656C4.17031 11.1812 4.12656 11.1437 4.12656 11.0875V4.9125C4.12656 4.875 4.17656 4.825 4.22656 4.825H4.90156C4.95156 4.825 4.99531 4.875 4.99531 4.9125V11.0875ZM6.76406 11.0875C6.76406 11.1437 6.71406 11.1812 6.67031 11.1812H5.99531C5.93906 11.1812 5.89531 11.1437 5.89531 11.0875V4.9125C5.89531 4.875 5.94531 4.825 5.99531 4.825H6.67031C6.72031 4.825 6.76406 4.875 6.76406 4.9125V11.0875ZM8.54531 11.0875C8.54531 11.1437 8.49531 11.1812 8.45156 11.1812H7.77656C7.72031 11.1812 7.67656 11.1437 7.67656 11.0875V4.9125C7.67656 4.875 7.72656 4.825 7.77656 4.825H8.45156C8.50156 4.825 8.54531 4.875 8.54531 4.9125V11.0875ZM15.5078 4.8125C15.5641 4.8125 15.6016 4.8625 15.6016 4.9125V5.60625C15.6016 5.6625 15.5641 5.7125 15.5078 5.7125H9.50156C9.46406 5.7125 9.41406 5.6625 9.41406 5.60625V4.9125C9.41406 4.8625 9.46406 4.8125 9.50156 4.8125H15.5078ZM15.5078 6.64375C15.5641 6.64375 15.6016 6.69375 15.6016 6.74375V7.4375C15.6016 7.49375 15.5641 7.54375 15.5078 7.54375H9.50156C9.46406 7.54375 9.41406 7.49375 9.41406 7.4375V6.74375C9.41406 6.69375 9.46406 6.64375 9.50156 6.64375H15.5078ZM15.5078 8.4625C15.5641 8.4625 15.6016 8.5125 15.6016 8.5625V9.25625C15.6016 9.3125 15.5641 9.3625 15.5078 9.3625H9.50156C9.46406 9.3625 9.41406 9.3125 9.41406 9.25625V8.5625C9.41406 8.5125 9.46406 8.4625 9.50156 8.4625H15.5078ZM15.5078 10.2812C15.5641 10.2812 15.6016 10.3313 15.6016 10.3813V11.075C15.6016 11.1312 15.5641 11.1812 15.5078 11.1812H9.50156C9.46406 11.1812 9.41406 11.1312 9.41406 11.075V10.3813C9.41406 10.3313 9.46406 10.2812 9.50156 10.2812H15.5078Z" fill="white"/>
</svg>