<svg xmlns="http://www.w3.org/2000/svg" width="17" height="16" viewBox="0 0 17 16" fill="none">
  <path d="M12.7344 0H4.23438C2.16331 0 0.484375 1.67893 0.484375 3.75V12.25C0.484375 14.3211 2.16331 16 4.23438 16H12.7344C14.8054 16 16.4844 14.3211 16.4844 12.25V3.75C16.4844 1.67893 14.8054 0 12.7344 0Z" fill="#00005B"/>
  <path d="M7.05669 9.7575H4.57669L4.07 11.3308C4.05669 11.3908 4.00338 11.4308 3.94338 11.4242H2.69C2.61669 11.4242 2.59669 11.3842 2.61669 11.3042L4.76337 5.15081C4.78337 5.08419 4.80337 5.02419 4.83 4.94419C4.85669 4.80419 4.87 4.6575 4.87 4.51081C4.86337 4.4775 4.89 4.44419 4.92331 4.4375H6.65C6.69669 4.4375 6.73 4.4575 6.73669 4.49081L9.17 11.2908C9.19 11.3642 9.17 11.3975 9.10338 11.3975H7.71C7.66338 11.4042 7.61669 11.3708 7.60337 11.3242L7.05669 9.72419V9.7575ZM4.96338 8.43081H6.65669C6.61669 8.29081 6.56331 8.12419 6.50331 7.95081C6.44331 7.77081 6.38331 7.5775 6.32331 7.3775C6.25669 7.17081 6.19669 6.97081 6.13 6.76419C6.06331 6.55756 6.00337 6.36419 5.95 6.17081C5.89669 5.98419 5.85 5.81081 5.80331 5.65081H5.79C5.73 5.9375 5.65669 6.22419 5.56331 6.51081C5.46331 6.83081 5.36331 7.16419 5.25669 7.4975C5.17 7.8375 5.06331 8.15081 4.96338 8.43081ZM13.0967 9.1575H10.9834C11.01 9.36419 11.0767 9.57081 11.19 9.75081C11.31 9.93081 11.4767 10.0708 11.6767 10.1508C11.9434 10.2642 12.2367 10.3242 12.53 10.3175C12.7634 10.3108 12.9967 10.2908 13.2234 10.2442C13.4267 10.2176 13.626 10.1661 13.8167 10.0908C13.85 10.0642 13.87 10.0775 13.87 10.1442V11.1642C13.87 11.1908 13.8634 11.2175 13.8567 11.2442C13.8434 11.2642 13.83 11.2775 13.81 11.2908C13.5968 11.3845 13.3729 11.4516 13.1434 11.4908C12.8315 11.5508 12.5142 11.5776 12.1967 11.5708C11.69 11.5708 11.2634 11.4908 10.9167 11.3375C10.59 11.1975 10.3034 10.9775 10.0767 10.7042C9.86561 10.4473 9.7091 10.1502 9.61669 9.83081C9.52338 9.5175 9.47669 9.19081 9.47669 8.8575C9.47669 8.4975 9.53 8.14419 9.64338 7.7975C9.74964 7.46369 9.91942 7.15357 10.1434 6.88419C10.3634 6.6175 10.6367 6.40419 10.95 6.25081C11.2634 6.0975 11.6367 6.04419 12.0634 6.04419C12.4167 6.0375 12.77 6.10419 13.0967 6.25081C13.37 6.37081 13.61 6.55081 13.7967 6.78419C13.97 7.01081 14.11 7.26419 14.1967 7.54419C14.2834 7.81081 14.3234 8.08419 14.3234 8.3575C14.3234 8.5175 14.3167 8.6575 14.31 8.78419C14.2967 8.91081 14.29 9.00419 14.2834 9.06419C14.2767 9.11081 14.2367 9.15081 14.19 9.15081C14.15 9.15081 14.0767 9.1575 13.97 9.16419C13.8634 9.1775 13.7367 9.18419 13.5834 9.18419C13.43 9.18419 13.27 9.1575 13.0967 9.1575ZM10.9834 8.18419H12.39C12.5634 8.18419 12.69 8.18419 12.77 8.1775C12.8234 8.17081 12.8767 8.1575 12.9234 8.12419V8.0575C12.9236 7.97364 12.9101 7.89031 12.8834 7.81081C12.7634 7.4375 12.41 7.18419 12.0167 7.1975C11.8358 7.18736 11.6558 7.22981 11.4984 7.31972C11.3411 7.40963 11.2131 7.54316 11.13 7.70419C11.05 7.8575 11.0034 8.0175 10.9834 8.18419Z" fill="#9999FF"/>
</svg>