<svg xmlns="http://www.w3.org/2000/svg" width="50" height="50" viewBox="0 0 50 50" fill="none">
  <path d="M21.9375 33.6941L33.4375 26.0691C33.8125 25.8191 34 25.4649 34 25.0066C34 24.5483 33.8125 24.1941 33.4375 23.9441L21.9375 16.3191C21.5208 16.0274 21.0933 15.9958 20.655 16.2241C20.2167 16.4524 19.9983 16.8183 20 17.3216V32.6966C20 33.1966 20.2192 33.5616 20.6575 33.7916C21.0958 34.0216 21.5225 33.9874 21.9375 33.6941ZM25 50.0066C21.5417 50.0066 18.2917 49.3499 15.25 48.0366C12.2083 46.7233 9.5625 44.9424 7.3125 42.6941C5.0625 40.4458 3.28167 37.7999 1.97 34.7566C0.658334 31.7133 0.00166667 28.4633 0 25.0066C0 23.6733 0.104167 22.3399 0.3125 21.0066C0.520833 19.6733 0.833333 18.3608 1.25 17.0691C1.45833 16.4024 1.88583 15.9549 2.5325 15.7266C3.17917 15.4983 3.79333 15.5499 4.375 15.8816C5 16.2149 5.44833 16.7049 5.72 17.3516C5.99167 17.9983 6.0225 18.6749 5.8125 19.3816C5.5625 20.2983 5.36417 21.2258 5.2175 22.1641C5.07083 23.1024 4.99833 24.0499 5 25.0066C5 30.5899 6.9375 35.3191 10.8125 39.1941C14.6875 43.0691 19.4167 45.0066 25 45.0066C30.5833 45.0066 35.3125 43.0691 39.1875 39.1941C43.0625 35.3191 45 30.5899 45 25.0066C45 19.4233 43.0625 14.6941 39.1875 10.8191C35.3125 6.94409 30.5833 5.00659 25 5.00659C24 5.00659 23.0108 5.07909 22.0325 5.22409C21.0542 5.36909 20.085 5.58826 19.125 5.88159C18.4167 6.08993 17.75 6.06909 17.125 5.81909C16.5 5.56909 16.0417 5.13159 15.75 4.50659C15.4583 3.88159 15.4475 3.24659 15.7175 2.60159C15.9875 1.95659 16.4567 1.52909 17.125 1.31909C18.375 0.860759 19.6667 0.527425 21 0.319092C22.3333 0.110758 23.6667 0.0065918 25 0.0065918C28.4583 0.0065918 31.7083 0.663259 34.75 1.97659C37.7917 3.28993 40.4375 5.07076 42.6875 7.31909C44.9375 9.56743 46.7192 12.2133 48.0325 15.2566C49.3458 18.2999 50.0017 21.5499 50 25.0066C49.9983 28.4633 49.3417 31.7133 48.03 34.7566C46.7183 37.7999 44.9375 40.4458 42.6875 42.6941C40.4375 44.9424 37.7917 46.7241 34.75 48.0391C31.7083 49.3541 28.4583 50.0099 25 50.0066ZM8.75 12.5066C7.70833 12.5066 6.82333 12.1424 6.095 11.4141C5.36667 10.6858 5.00167 9.79993 5 8.75659C4.99833 7.71326 5.36333 6.82826 6.095 6.10159C6.82667 5.37493 7.71167 5.00993 8.75 5.00659C9.78833 5.00326 10.6742 5.36826 11.4075 6.10159C12.1408 6.83493 12.505 7.71993 12.5 8.75659C12.495 9.79326 12.1308 10.6791 11.4075 11.4141C10.6842 12.1491 9.79833 12.5133 8.75 12.5066ZM10 25.0066C10 20.8399 11.4583 17.2983 14.375 14.3816C17.2917 11.4649 20.8333 10.0066 25 10.0066C29.1667 10.0066 32.7083 11.4649 35.625 14.3816C38.5417 17.2983 40 20.8399 40 25.0066C40 29.1733 38.5417 32.7149 35.625 35.6316C32.7083 38.5483 29.1667 40.0066 25 40.0066C20.8333 40.0066 17.2917 38.5483 14.375 35.6316C11.4583 32.7149 10 29.1733 10 25.0066Z" fill="white"/>
</svg>