<svg xmlns="http://www.w3.org/2000/svg" width="17" height="16" viewBox="0 0 17 16" fill="none">
  <path d="M3.3053 0.199951H13.6385C15.2053 0.199951 16.4719 1.46658 16.4719 3.03333V12.9666C16.4719 14.5333 15.2053 15.8 13.6385 15.8H3.3053C1.73855 15.8 0.471924 14.5333 0.471924 12.9666V3.03333C0.471924 1.46658 1.73855 0.199951 3.3053 0.199951Z" fill="#001E36"/>
  <path d="M6.2053 4.16658C6.0053 4.16658 5.8053 4.16658 5.59867 4.17333C5.39192 4.17995 5.19855 4.17995 5.01855 4.1867C4.83855 4.19333 4.67192 4.19333 4.51192 4.19995C4.35855 4.20658 4.25192 4.20658 4.13855 4.20658C4.09192 4.20658 4.07192 4.2332 4.07192 4.27995V11.14C4.07192 11.2 4.09855 11.2267 4.15192 11.2267H5.4453C5.49192 11.22 5.5253 11.18 5.51855 11.1333V8.99333C5.64517 8.99333 5.73855 8.99333 5.8053 8.99995C5.87192 9.00658 5.97855 9.00658 6.13855 9.00658C6.6853 9.00658 7.1853 8.94658 7.63855 8.77995C8.07192 8.61995 8.4453 8.33995 8.71192 7.96658C8.97859 7.59324 9.11192 7.11991 9.11192 6.54658C9.11192 6.24658 9.05867 5.95995 8.95867 5.67995C8.85271 5.39469 8.68672 5.13551 8.47192 4.91995C8.2184 4.67366 7.91323 4.48689 7.57855 4.3732C7.20517 4.2332 6.75192 4.16658 6.2053 4.16658ZM6.35405 5.4797C6.59155 5.4842 6.8228 5.5257 7.03855 5.6132C7.23192 5.68658 7.39192 5.81995 7.5053 5.9932C7.61163 6.17251 7.66482 6.37833 7.65867 6.5867C7.65867 6.87995 7.59192 7.1067 7.45192 7.27333C7.30517 7.43995 7.11855 7.5667 6.9053 7.6267C6.65855 7.7067 6.39855 7.74658 6.13855 7.74658H5.78517C5.70517 7.74658 5.61867 7.73995 5.5253 7.73333V5.49333C5.57192 5.48658 5.6653 5.47995 5.79867 5.4867C5.9253 5.47995 6.07855 5.47995 6.25192 5.47995C6.28609 5.47912 6.32013 5.47903 6.35405 5.4797ZM11.9453 5.82008C11.4719 5.82008 11.0785 5.89333 10.7653 6.05333C10.4787 6.1867 10.2319 6.39995 10.0653 6.66658C9.91867 6.91333 9.83855 7.18658 9.83855 7.47333C9.83285 7.70917 9.88554 7.94276 9.99192 8.15333C10.1166 8.37753 10.2897 8.57111 10.4987 8.71995C10.7919 8.92054 11.1102 9.0819 11.4453 9.19995C11.7719 9.32658 11.9919 9.42658 12.0987 9.5132C12.2053 9.59995 12.2587 9.68658 12.2587 9.77995C12.2587 9.89995 12.1853 10.0133 12.0787 10.06C11.9587 10.12 11.7787 10.1533 11.5253 10.1533C11.2587 10.1533 10.9919 10.12 10.7385 10.0533C10.4476 9.98835 10.1687 9.87814 9.91192 9.7267C9.89192 9.71333 9.87192 9.7067 9.85192 9.72008C9.83192 9.73333 9.8253 9.75995 9.8253 9.77995V10.94C9.81867 10.9933 9.85192 11.04 9.89867 11.0666C10.1149 11.1676 10.3435 11.2393 10.5787 11.28C10.8787 11.34 11.1785 11.3666 11.4852 11.3666C11.9652 11.3666 12.3653 11.2933 12.6919 11.1533C12.9919 11.0333 13.2519 10.8267 13.4385 10.56C13.6133 10.2977 13.704 9.98843 13.6985 9.67333C13.7051 9.43529 13.6525 9.19935 13.5453 8.9867C13.4185 8.75995 13.2385 8.57333 13.0185 8.43333C12.6967 8.23121 12.3521 8.06783 11.9919 7.94658C11.8311 7.88 11.6731 7.8066 11.5185 7.72658C11.4319 7.67995 11.3519 7.61995 11.2919 7.54658C11.2519 7.4932 11.2253 7.43333 11.2253 7.37333C11.2253 7.31333 11.2453 7.2467 11.2785 7.19333C11.3253 7.1267 11.3985 7.07995 11.4852 7.05995C11.6119 7.0267 11.7519 7.00658 11.8852 7.0132C12.1385 7.0132 12.3852 7.04658 12.6319 7.09995C12.8587 7.14658 13.0719 7.21995 13.2719 7.3267C13.2985 7.33995 13.3319 7.33995 13.3919 7.3267C13.4023 7.31898 13.4108 7.30891 13.4166 7.29732C13.4224 7.28572 13.4254 7.27292 13.4253 7.25995V6.17333C13.4253 6.14658 13.4185 6.11995 13.4119 6.09333C13.3985 6.0667 13.3719 6.03995 13.3453 6.03333C13.1614 5.95817 12.9688 5.90664 12.7719 5.87995C12.4982 5.84009 12.2219 5.82017 11.9453 5.82008Z" fill="#31A8FF"/>
</svg>