<svg xmlns="http://www.w3.org/2000/svg" width="18" height="16" viewBox="0 0 18 16" fill="none">
  <path d="M16 0.0065918C16.5304 0.0065918 17.0391 0.217305 17.4142 0.592378C17.7893 0.967451 18 1.47616 18 2.00659V14.0066C18 14.537 17.7893 15.0457 17.4142 15.4208C17.0391 15.7959 16.5304 16.0066 16 16.0066H2C1.46957 16.0066 0.960859 15.7959 0.585786 15.4208C0.210714 15.0457 0 14.537 0 14.0066V2.00659C0 1.47616 0.210714 0.967451 0.585786 0.592378C0.960859 0.217305 1.46957 0.0065918 2 0.0065918H16ZM16 6.00659H2V13.0066C2.00003 13.2515 2.08996 13.4879 2.25272 13.671C2.41547 13.854 2.63975 13.9709 2.883 13.9996L3 14.0066H15C15.2449 14.0066 15.4813 13.9166 15.6644 13.7539C15.8474 13.5911 15.9643 13.3668 15.993 13.1236L16 13.0066V6.00659ZM3 2.00659C2.73478 2.00659 2.48043 2.11195 2.29289 2.29949C2.10536 2.48702 2 2.74138 2 3.00659C2 3.27181 2.10536 3.52616 2.29289 3.7137C2.48043 3.90123 2.73478 4.00659 3 4.00659C3.26522 4.00659 3.51957 3.90123 3.70711 3.7137C3.89464 3.52616 4 3.27181 4 3.00659C4 2.74138 3.89464 2.48702 3.70711 2.29949C3.51957 2.11195 3.26522 2.00659 3 2.00659ZM6 2.00659C5.73478 2.00659 5.48043 2.11195 5.29289 2.29949C5.10536 2.48702 5 2.74138 5 3.00659C5 3.27181 5.10536 3.52616 5.29289 3.7137C5.48043 3.90123 5.73478 4.00659 6 4.00659C6.26522 4.00659 6.51957 3.90123 6.70711 3.7137C6.89464 3.52616 7 3.27181 7 3.00659C7 2.74138 6.89464 2.48702 6.70711 2.29949C6.51957 2.11195 6.26522 2.00659 6 2.00659ZM9 2.00659C8.73478 2.00659 8.48043 2.11195 8.29289 2.29949C8.10536 2.48702 8 2.74138 8 3.00659C8 3.27181 8.10536 3.52616 8.29289 3.7137C8.48043 3.90123 8.73478 4.00659 9 4.00659C9.26522 4.00659 9.51957 3.90123 9.70711 3.7137C9.89464 3.52616 10 3.27181 10 3.00659C10 2.74138 9.89464 2.48702 9.70711 2.29949C9.51957 2.11195 9.26522 2.00659 9 2.00659Z" fill="white"/>
</svg>