<svg xmlns="http://www.w3.org/2000/svg" width="17" height="16" viewBox="0 0 17 16" fill="none">
  <path d="M12.7344 0H4.23438C2.16331 0 0.484375 1.67893 0.484375 3.75V12.25C0.484375 14.3211 2.16331 16 4.23438 16H12.7344C14.8054 16 16.4844 14.3211 16.4844 12.25V3.75C16.4844 1.67893 14.8054 0 12.7344 0Z" fill="#00005B"/>
  <path d="M3.85938 11.4175V4.55081C3.85938 4.50419 3.87938 4.4775 3.92606 4.4775C4.03938 4.4775 4.14606 4.4775 4.29938 4.47081C4.45938 4.46419 4.62606 4.46419 4.80606 4.4575C4.98606 4.45081 5.17938 4.45081 5.38606 4.44419C5.59269 4.4375 5.79269 4.4375 5.99269 4.4375C6.53938 4.4375 6.99269 4.50419 7.36606 4.64419C7.70071 4.75785 8.00586 4.94457 8.25938 5.19081C8.47415 5.40638 8.64012 5.66555 8.74606 5.95081C8.84606 6.23081 8.89937 6.5175 8.89937 6.8175C8.89937 7.39083 8.76604 7.86417 8.49938 8.2375C8.23269 8.61081 7.85938 8.89081 7.42606 9.05081C6.97269 9.2175 6.47269 9.2775 5.92606 9.2775C5.76606 9.2775 5.65938 9.2775 5.59269 9.27081C5.52606 9.26419 5.43269 9.26419 5.30606 9.26419V11.4042C5.31269 11.4508 5.27937 11.4908 5.23269 11.4975H3.93937C3.88606 11.4975 3.85938 11.4708 3.85938 11.4108V11.4175ZM5.31269 5.77081V8.01081C5.40606 8.0175 5.49269 8.02419 5.57269 8.02419H5.92606C6.18606 8.02419 6.44606 7.98419 6.69269 7.90419C6.90606 7.84419 7.09269 7.7175 7.23938 7.55081C7.37938 7.38419 7.44606 7.1575 7.44606 6.86419C7.45232 6.65584 7.39912 6.45003 7.29269 6.27081C7.17937 6.0975 7.01938 5.96419 6.82606 5.89081C6.57938 5.79081 6.31269 5.75081 6.03937 5.7575C5.86606 5.7575 5.71269 5.7575 5.58606 5.76419C5.45269 5.7575 5.35937 5.76419 5.31269 5.77081ZM9.85938 6.16419H11.0261C11.0928 6.16419 11.1461 6.21081 11.1661 6.27081C11.1861 6.32419 11.1994 6.3775 11.2061 6.4375C11.2194 6.50419 11.2328 6.5775 11.2394 6.64419C11.2461 6.7175 11.2528 6.7975 11.2528 6.88419C11.4529 6.65049 11.6948 6.45605 11.9661 6.31081C12.2728 6.1375 12.6261 6.05081 12.9794 6.05081C13.0261 6.04419 13.0661 6.0775 13.0728 6.12419V7.45081C13.0728 7.50419 13.0394 7.52419 12.9661 7.52419C12.7261 7.5175 12.4794 7.5375 12.2461 7.59081C12.0527 7.63081 11.8661 7.69081 11.6861 7.77081C11.5594 7.83081 11.4394 7.91081 11.3461 8.0175V11.4175C11.3461 11.4842 11.3194 11.5108 11.2594 11.5108H9.94606C9.89275 11.5175 9.84606 11.4842 9.83937 11.4308V7.71081C9.83937 7.55081 9.83938 7.38419 9.83275 7.21081C9.82606 7.0375 9.82606 6.86419 9.81938 6.69081C9.81938 6.5375 9.80606 6.39081 9.79275 6.2375C9.78606 6.20419 9.80606 6.17081 9.83937 6.16419C9.83937 6.1575 9.85275 6.1575 9.85938 6.16419Z" fill="#9999FF"/>
</svg>