<?xml version="1.0" encoding="utf-8"?>
<!-- Generator: Adobe Illustrator 23.0.6, SVG Export Plug-In . SVG Version: 6.00 Build 0)  -->
<svg version="1.1" id="Layer_1" xmlns="http://www.w3.org/2000/svg" xmlns:xlink="http://www.w3.org/1999/xlink" x="0px" y="0px"
	 viewBox="0 0 140 150" style="enable-background:new 0 0 140 150;" xml:space="preserve">
<style type="text/css">
	.st0{fill-rule:evenodd;clip-rule:evenodd;fill:#0772AD;}
	.st1{fill-rule:evenodd;clip-rule:evenodd;}
	.st2{fill-rule:evenodd;clip-rule:evenodd;fill:#FFFFFF;}
</style>
<title>FabFilter</title>
<g>
	<path class="st0" d="M8.4,0h123.3c4.6,0,8.4,3.7,8.4,8.4v133.3c0,4.6-3.7,8.4-8.4,8.4H8.4c-4.6,0-8.4-3.7-8.4-8.4V8.4
		C0,3.7,3.7,0,8.4,0z"/>
	<path class="st1" d="M28.9,73.3c-1,0-1.8,0.8-1.8,1.9v16.3c0,1,0.8,1.9,1.8,1.9s1.8-0.8,1.8-1.9V75.2
		C30.8,74.2,29.9,73.3,28.9,73.3 M28.9,46.4c1,0,1.8-0.8,1.8-1.9V28.3c0-1-0.8-1.9-1.8-1.9s-1.8,0.8-1.8,1.9v16.3
		C27.1,45.6,27.9,46.4,28.9,46.4 M44.2,75.2c0-1-0.8-1.9-1.8-1.9s-1.8,0.8-1.8,1.9v16.3c0,1,0.8,1.9,1.8,1.9s1.8-0.8,1.8-1.9V75.2
		L44.2,75.2z"/>
	<path class="st2" d="M70.5,46.4c1,0,1.8-0.8,1.8-1.9V28.3c0-1-0.8-1.9-1.8-1.9s-1.8,0.8-1.8,1.9v16.3
		C68.6,45.6,69.4,46.4,70.5,46.4"/>
	<path class="st1" d="M110.6,46.4c1,0,1.8-0.8,1.8-1.9V28.3c0-1-0.8-1.9-1.8-1.9s-1.8,0.8-1.8,1.9v16.3
		C108.8,45.6,109.6,46.4,110.6,46.4 M90.8,26.4c-5.5,0-9.9,4.5-9.9,10s4.4,10,9.9,10s9.9-4.5,9.9-10S96.2,26.4,90.8,26.4 M90.8,43.1
		c-3.7,0-6.7-3-6.7-6.7s3-6.7,6.7-6.7s6.7,3,6.7,6.7S94.5,43.1,90.8,43.1 M36.5,50.1c-5.5,0-9.9,4.5-9.9,10s4.4,10,9.9,10
		s9.9-4.5,9.9-10C46.5,54.6,42,50.1,36.5,50.1 M36.5,66.8c-3.7,0-6.7-3-6.7-6.7s3-6.7,6.7-6.7s6.7,3,6.7,6.7
		C43.2,63.8,40.2,66.8,36.5,66.8 M81.5,52v16.3c0,1,0.8,1.9,1.9,1.9c1,0,1.8-0.8,1.8-1.9V52c0-1-0.8-1.9-1.8-1.9S81.5,50.9,81.5,52
		 M58.5,36.4c0-5.5-4.4-10-9.9-10s-9.9,4.5-9.9,10s4.4,10,9.9,10C54,46.4,58.5,41.9,58.5,36.4 M48.5,43.1c-3.7,0-6.7-3-6.7-6.7
		s3-6.7,6.7-6.7s6.7,3,6.7,6.7S52.2,43.1,48.5,43.1 M90.5,73.3c-5.5,0-9.9,4.5-9.9,10s4.4,10,9.9,10s9.9-4.5,9.9-10
		C100.5,77.8,96,73.3,90.5,73.3 M90.5,90.1c-3.7,0-6.7-3-6.7-6.7s3-6.7,6.7-6.7s6.7,3,6.7,6.7C97.2,87,94.2,90.1,90.5,90.1"/>
	<path class="st2" d="M70.5,50.1c-1,0-1.8,0.8-1.8,1.9v16.3c0,1,0.8,1.9,1.8,1.9s1.8-0.8,1.8-1.9V52C72.3,50.9,71.5,50.1,70.5,50.1"
		/>
	<path class="st1" d="M110.6,73.3c-1,0-1.8,0.8-1.8,1.9v16.3c0,1,0.8,1.9,1.8,1.9s1.8-0.8,1.8-1.9V75.2
		C112.5,74.2,111.6,73.3,110.6,73.3"/>
	<path class="st2" d="M61.9,73.3c-5.5,0-9.9,4.5-9.9,10s4.4,10,9.9,10s9.9-4.5,9.9-10S67.4,73.3,61.9,73.3 M61.9,90.1
		c-3.7,0-6.7-3-6.7-6.7s3-6.7,6.7-6.7c3.7,0,6.7,3,6.7,6.7C68.6,87,65.6,90.1,61.9,90.1"/>
	<path class="st1" d="M58,52c0-1-0.8-1.9-1.8-1.9s-1.8,0.8-1.8,1.9v16.3c0,1,0.8,1.9,1.8,1.9s1.8-0.8,1.8-1.9V52L58,52z M103,50.1
		c-5.5,0-9.9,4.5-9.9,10s4.4,10,9.9,10s9.9-4.5,9.9-10S108.5,50.1,103,50.1 M103,66.8c-3.7,0-6.7-3-6.7-6.7s3-6.7,6.7-6.7
		s6.7,3,6.7,6.7C109.7,63.8,106.7,66.8,103,66.8"/>
	<path class="st2" d="M28.4,116.1c0,0.6-0.3,0.9-0.9,0.9c-0.5,0-0.9-0.4-0.9-0.9v-8.4h-0.7c-0.6,0-0.9-0.3-0.9-0.8s0.3-0.8,0.9-0.8
		h0.7v-2.5c0-1.6,1.1-2.3,2.4-2.3h0.5c0.5,0,1,0.3,1,0.8s-0.3,0.8-1,0.8h-0.4c-0.5,0-0.7,0.3-0.7,0.7v2.6h1.1c0.6,0,0.9,0.3,0.9,0.8
		s-0.3,0.8-0.9,0.8h-1.1V116.1z M43.5,116.2c0,0.6-0.5,0.9-0.8,0.9c-0.4,0-0.8-0.2-0.8-0.9v-0.8l0,0c-0.8,1.1-1.8,1.6-2.9,1.6
		c-3,0-4.7-2.7-4.7-5.5c0-2.9,1.7-5.5,4.7-5.5c1.2,0,2.1,0.5,2.9,1.4l0,0v-0.6c0-0.6,0.5-0.9,0.8-0.9s0.8,0.2,0.8,0.9V116.2
		L43.5,116.2z M38.8,115.5c2.2,0,2.9-2.2,2.9-4s-0.8-4-2.9-4s-3,2.2-3,4C35.9,113.3,36.7,115.5,38.8,115.5z M48.5,102.2
		c0-0.6,0.3-1,0.9-1c0.5,0,0.9,0.4,0.9,1v5.3l0,0c0.5-0.7,1.5-1.5,2.9-1.5c2.9,0,4.6,2.7,4.6,5.5c0,2.9-1.7,5.5-4.6,5.5
		c-1.4,0-2.4-0.5-2.9-1.5l0,0v0.5c0,0.6-0.3,0.9-0.9,0.9c-0.5,0-0.9-0.4-0.9-0.9V102.2L48.5,102.2z M53.1,115.5c2.2,0,3-2.2,3-4
		s-0.8-4-3-4s-3,2.2-3,4S50.9,115.5,53.1,115.5z M64.9,116.1c0,0.6-0.3,0.9-0.9,0.9c-0.5,0-0.9-0.4-0.9-0.9v-8.4h-0.7
		c-0.6,0-0.9-0.3-0.9-0.8s0.3-0.8,0.9-0.8h0.7v-2.5c0-1.6,1.1-2.3,2.4-2.3H66c0.5,0,1,0.3,1,0.8s-0.3,0.8-1,0.8h-0.4
		c-0.5,0-0.7,0.3-0.7,0.7v2.6H66c0.6,0,0.9,0.3,0.9,0.8s-0.3,0.8-0.9,0.8h-1.1V116.1z M72.7,102.3c0.6,0,1.1,0.5,1.1,1.1
		s-0.5,1.1-1.1,1.1s-1.1-0.5-1.1-1.1S72.1,102.3,72.7,102.3L72.7,102.3z M73.6,116.1c0,0.6-0.3,1-0.9,1c-0.5,0-0.9-0.4-0.9-1v-9.2
		c0-0.6,0.3-0.9,0.9-0.9c0.5,0,0.9,0.4,0.9,0.9V116.1L73.6,116.1z M81.2,116.1c0,0.6-0.3,0.9-0.9,0.9c-0.5,0-0.9-0.4-0.9-0.9v-13.9
		c0-0.6,0.3-1,0.9-1c0.5,0,0.9,0.4,0.9,1V116.1L81.2,116.1z M87.5,103.8c0-0.6,0.3-1,0.9-1c0.5,0,0.9,0.4,0.9,1v2.3H90
		c0.6,0,0.9,0.3,0.9,0.8s-0.3,0.8-0.9,0.8h-0.7v8.4c0,0.6-0.3,0.9-0.9,0.9c-0.5,0-0.9-0.4-0.9-0.9v-8.4h-0.7c-0.6,0-0.9-0.3-0.9-0.8
		s0.3-0.8,0.9-0.8h0.7V103.8z M96.6,112.2c0,1.8,1.2,3.3,3.2,3.3c2.4,0,3-1.5,3.6-1.5c0.3,0,0.6,0.3,0.6,0.8c0,0.9-2.2,2.2-4.3,2.2
		c-3.4,0-4.9-2.7-4.9-5.5c0-2.9,1.8-5.5,4.8-5.5c2.9,0,4.6,2.7,4.6,5.3c0,0.6-0.2,1-1,1L96.6,112.2L96.6,112.2z M102.5,110.8
		c0-1.5-0.9-3.3-2.8-3.3c-2.2-0.1-3,1.7-3.1,3.3H102.5L102.5,110.8z M108.9,106.9c0-0.6,0.3-0.9,0.9-0.9c0.5,0,0.9,0.4,0.9,0.9v0.9
		l0,0c0.4-0.8,1.4-1.9,2.4-1.9c0.6,0,1,0.4,1,0.9s-0.4,0.8-1.1,1c-1.1,0.2-2.3,1-2.3,3.1v5.1c0,0.6-0.3,1-0.9,1s-0.9-0.4-0.9-1
		V106.9L108.9,106.9z M27.9,125.5c0.5,0,1.3,0.3,1.3,0.7c0,0.1-0.1,0.3-0.3,0.3c-0.3,0-0.4-0.4-1-0.4c-0.4,0-0.7,0.2-0.7,0.5
		c0,0.7,2.1,0.6,2.1,1.8c0,0.8-0.7,1.2-1.4,1.2c-0.8,0-1.5-0.4-1.5-0.8c0-0.2,0.1-0.3,0.3-0.3c0.3,0,0.5,0.5,1.2,0.5
		c0.5,0,0.8-0.3,0.8-0.5c0-0.8-2.1-0.7-2.1-1.8C26.5,125.9,27.2,125.5,27.9,125.5 M32.6,125.5c1.1,0,1.7,1,1.7,2s-0.6,2-1.7,2
		c-1.1,0-1.7-1-1.7-2C30.9,126.5,31.5,125.5,32.6,125.5 M32.6,129c0.8,0,1.1-0.8,1.1-1.5s-0.3-1.5-1.1-1.5s-1.1,0.8-1.1,1.5
		S31.8,129,32.6,129 M37,129.2c0,0.2-0.1,0.3-0.3,0.3s-0.3-0.1-0.3-0.3v-3.1h-0.3c-0.2,0-0.3-0.1-0.3-0.3c0-0.2,0.1-0.3,0.3-0.3h0.3
		v-0.9c0-0.6,0.4-0.9,0.9-0.9h0.2c0.2,0,0.4,0.1,0.4,0.3c0,0.2-0.1,0.3-0.4,0.3h-0.2c-0.2,0-0.3,0.1-0.3,0.3v1h0.4
		c0.2,0,0.3,0.1,0.3,0.3c0,0.2-0.1,0.3-0.3,0.3H37V129.2L37,129.2z M39.4,124.7c0-0.2,0.1-0.4,0.3-0.4s0.3,0.1,0.3,0.4v0.9h0.3
		c0.2,0,0.3,0.1,0.3,0.3c0,0.2-0.1,0.3-0.3,0.3H40v3.1c0,0.2-0.1,0.3-0.3,0.3s-0.3-0.1-0.3-0.3v-3.1h-0.3c-0.2,0-0.3-0.1-0.3-0.3
		c0-0.2,0.1-0.3,0.3-0.3h0.3V124.7L39.4,124.7z M41.8,126c0-0.1-0.1-0.2-0.1-0.3c0-0.1,0.1-0.3,0.3-0.3c0.1,0,0.3,0.1,0.4,0.3
		l0.8,2.7l0,0l0.8-2.6c0.1-0.3,0.2-0.4,0.4-0.4s0.3,0.1,0.4,0.4l0.8,2.6l0,0l0.8-2.7c0.1-0.3,0.2-0.3,0.4-0.3s0.3,0.2,0.3,0.3
		c0,0.1,0,0.2-0.1,0.3l-1.1,3.2c-0.1,0.3-0.2,0.3-0.4,0.3s-0.3-0.1-0.4-0.3l-0.8-2.7l0,0l-0.8,2.7c-0.1,0.3-0.2,0.3-0.4,0.3
		s-0.3-0.1-0.4-0.3L41.8,126L41.8,126z M52.1,129.2c0,0.2-0.2,0.3-0.3,0.3s-0.3-0.1-0.3-0.3V129l0,0c-0.3,0.4-0.7,0.6-1.1,0.6
		c-1.1,0-1.7-1-1.7-2c0-1.1,0.6-2,1.7-2c0.5,0,0.8,0.2,1.1,0.5l0,0v-0.2c0-0.2,0.2-0.3,0.3-0.3s0.3,0.1,0.3,0.3V129.2L52.1,129.2z
		 M50.4,129c0.8,0,1.1-0.8,1.1-1.5s-0.3-1.5-1.1-1.5s-1.1,0.8-1.1,1.5S49.6,129,50.4,129z M54.1,125.8c0-0.2,0.1-0.4,0.3-0.4
		s0.3,0.1,0.3,0.4v0.3l0,0c0.1-0.3,0.5-0.7,0.9-0.7c0.2,0,0.4,0.1,0.4,0.3c0,0.2-0.1,0.3-0.4,0.4c-0.4,0.1-0.9,0.4-0.9,1.1v1.9
		c0,0.2-0.1,0.3-0.3,0.3s-0.3-0.1-0.3-0.3V125.8L54.1,125.8z M57.9,127.8c0,0.7,0.4,1.2,1.2,1.2c0.9,0,1.1-0.5,1.3-0.5
		c0.1,0,0.2,0.1,0.2,0.3c0,0.3-0.8,0.8-1.6,0.8c-1.3,0-1.8-1-1.8-2c0-1.1,0.7-2,1.8-2s1.7,1,1.7,1.9c0,0.2-0.1,0.4-0.4,0.4
		L57.9,127.8L57.9,127.8z M60.1,127.3c0-0.6-0.3-1.2-1-1.2c-0.8,0-1.1,0.6-1.1,1.2H60.1L60.1,127.3z M66.2,124.1
		c0.2,0,0.4,0.2,0.4,0.4s-0.2,0.4-0.4,0.4c-0.2,0-0.4-0.2-0.4-0.4C65.8,124.3,65.9,124.1,66.2,124.1z M66.5,129.2
		c0,0.2-0.1,0.3-0.3,0.3c-0.2,0-0.3-0.1-0.3-0.3v-3.4c0-0.2,0.1-0.4,0.3-0.4c0.2,0,0.3,0.1,0.3,0.4V129.2L66.5,129.2z M68.4,125.8
		c0-0.2,0.1-0.4,0.3-0.4c0.2,0,0.3,0.1,0.3,0.4v0.2l0,0c0.3-0.4,0.7-0.5,1.1-0.5c0.6,0,1.4,0.4,1.4,1.5v2.2c0,0.2-0.1,0.3-0.3,0.3
		c-0.2,0-0.3-0.1-0.3-0.3V127c0-0.7-0.5-1-0.9-1s-0.9,0.3-0.9,1v2.2c0,0.2-0.1,0.3-0.3,0.3c-0.2,0-0.3-0.1-0.3-0.3L68.4,125.8
		L68.4,125.8z M74.8,125.5c0.5,0,1.3,0.3,1.3,0.7c0,0.1-0.1,0.3-0.3,0.3c-0.3,0-0.4-0.4-1-0.4c-0.4,0-0.7,0.2-0.7,0.5
		c0,0.7,2.1,0.6,2.1,1.8c0,0.8-0.7,1.2-1.4,1.2c-0.8,0-1.5-0.4-1.5-0.8c0-0.2,0.1-0.3,0.3-0.3c0.3,0,0.5,0.5,1.2,0.5
		c0.5,0,0.8-0.3,0.8-0.5c0-0.8-2.1-0.7-2.1-1.8C73.5,125.9,74.1,125.5,74.8,125.5 M78.2,124.7c0-0.2,0.1-0.4,0.3-0.4
		c0.2,0,0.3,0.1,0.3,0.4v0.9h0.3c0.2,0,0.3,0.1,0.3,0.3c0,0.2-0.1,0.3-0.3,0.3h-0.3v3.1c0,0.2-0.1,0.3-0.3,0.3
		c-0.2,0-0.3-0.1-0.3-0.3v-3.1h-0.3c-0.2,0-0.3-0.1-0.3-0.3c0-0.2,0.1-0.3,0.3-0.3h0.3V124.7L78.2,124.7z M81,125.8
		c0-0.2,0.1-0.4,0.3-0.4c0.2,0,0.3,0.1,0.3,0.4v0.3l0,0c0.1-0.3,0.5-0.7,0.9-0.7c0.2,0,0.4,0.1,0.4,0.3c0,0.2-0.1,0.3-0.4,0.4
		c-0.4,0.1-0.9,0.4-0.9,1.1v1.9c0,0.2-0.1,0.3-0.3,0.3c-0.2,0-0.3-0.1-0.3-0.3V125.8L81,125.8z M84.4,125.8c0-0.2,0.1-0.4,0.3-0.4
		c0.2,0,0.3,0.1,0.3,0.4v2.1c0,0.7,0.3,1,0.9,1s0.9-0.4,0.9-1v-2.1c0-0.2,0.1-0.4,0.3-0.4c0.2,0,0.3,0.1,0.3,0.4v2.1
		c0,1.2-0.8,1.6-1.6,1.6c-0.8,0-1.6-0.4-1.6-1.6L84.4,125.8L84.4,125.8z M91.9,127c0-0.6-0.3-0.9-0.8-0.9s-0.8,0.4-0.8,0.9v2.2
		c0,0.2-0.1,0.3-0.3,0.3c-0.2,0-0.3-0.1-0.3-0.3v-3.4c0-0.2,0.1-0.4,0.3-0.4c0.2,0,0.3,0.1,0.3,0.4v0.1l0,0c0.2-0.2,0.4-0.5,1-0.5
		c0.4,0,0.8,0.2,1.1,0.7c0.3-0.4,0.6-0.7,1.2-0.7s1.4,0.4,1.4,1.5v2.2c0,0.2-0.1,0.3-0.3,0.3c-0.2,0-0.3-0.1-0.3-0.3V127
		c0-0.6-0.3-0.9-0.8-0.9s-0.8,0.4-0.8,0.9v2.2c0,0.2-0.1,0.3-0.3,0.3c-0.2,0-0.3-0.1-0.3-0.3L91.9,127L91.9,127z M97.3,127.8
		c0,0.7,0.4,1.2,1.2,1.2c0.9,0,1.1-0.5,1.3-0.5c0.1,0,0.2,0.1,0.2,0.3c0,0.3-0.8,0.8-1.6,0.8c-1.3,0-1.8-1-1.8-2c0-1.1,0.7-2,1.8-2
		c1.1,0,1.7,1,1.7,1.9c0,0.2-0.1,0.4-0.4,0.4L97.3,127.8L97.3,127.8z M99.4,127.3c0-0.6-0.3-1.2-1-1.2c-0.8,0-1.1,0.6-1.1,1.2H99.4
		L99.4,127.3z M101.8,125.8c0-0.2,0.1-0.4,0.3-0.4c0.2,0,0.3,0.1,0.3,0.4v0.2l0,0c0.3-0.4,0.7-0.5,1.1-0.5c0.6,0,1.4,0.4,1.4,1.5
		v2.2c0,0.2-0.1,0.3-0.3,0.3c-0.2,0-0.3-0.1-0.3-0.3V127c0-0.7-0.5-1-0.9-1s-0.9,0.3-0.9,1v2.2c0,0.2-0.1,0.3-0.3,0.3
		c-0.2,0-0.3-0.1-0.3-0.3L101.8,125.8L101.8,125.8z M107.1,124.7c0-0.2,0.1-0.4,0.3-0.4c0.2,0,0.3,0.1,0.3,0.4v0.9h0.3
		c0.2,0,0.3,0.1,0.3,0.3c0,0.2-0.1,0.3-0.3,0.3h-0.3v3.1c0,0.2-0.1,0.3-0.3,0.3c-0.2,0-0.3-0.1-0.3-0.3v-3.1h-0.3
		c-0.2,0-0.3-0.1-0.3-0.3c0-0.2,0.1-0.3,0.3-0.3h0.3V124.7L107.1,124.7z M111.2,125.5c0.5,0,1.3,0.3,1.3,0.7c0,0.1-0.1,0.3-0.3,0.3
		c-0.3,0-0.4-0.4-1-0.4c-0.4,0-0.7,0.2-0.7,0.5c0,0.7,2.1,0.6,2.1,1.8c0,0.8-0.7,1.2-1.4,1.2c-0.8,0-1.5-0.4-1.5-0.8
		c0-0.2,0.1-0.3,0.3-0.3c0.3,0,0.5,0.5,1.2,0.5c0.5,0,0.8-0.3,0.8-0.5c0-0.8-2.1-0.7-2.1-1.8C109.9,125.9,110.5,125.5,111.2,125.5"
		/>
</g>
</svg>
