<svg xmlns="http://www.w3.org/2000/svg" width="49" height="48" viewBox="0 0 49 48" fill="none">
  <path d="M45.6484 48H33.6484C32.3151 48 31.1151 47.2 30.5817 46C30.0484 44.8 30.3151 43.3333 31.2484 42.4L42.3151 31.3333V26.1333L21.3817 47.0667C20.7151 47.7333 19.9151 48 18.9817 48H4.31505C2.98172 48 1.78172 47.2 1.24839 46C0.715052 44.8 0.981719 43.3333 1.91505 42.4L37.6484 6.66667H32.4484L6.71505 32.4C5.78172 33.3333 4.31505 33.6 3.11505 33.0667C1.78172 32.5333 0.981719 31.3333 0.981719 30V15.3333C0.981719 14.4 1.38172 13.6 1.91505 12.9333L8.18172 6.66667H4.18172C2.44839 6.66667 0.981719 5.2 0.981719 3.33333C0.981719 1.46667 2.44839 0 4.31505 0H16.3151C17.6484 0 18.8484 0.8 19.3817 2C19.9151 3.2 19.6484 4.66667 18.7151 5.6L7.64839 16.6667V21.8667L28.5817 0.933333C29.2484 0.4 30.0484 0 30.9817 0H45.6484C46.9817 0 48.1817 0.8 48.7151 2C49.2484 3.2 48.9817 4.66667 48.0484 5.6L12.3151 41.3333H17.5151L43.2484 15.6C44.1817 14.6667 45.6484 14.4 46.8484 14.9333C48.0484 15.4667 48.8484 16.6667 48.8484 18V32.6667C48.8484 33.6 48.4484 34.4 47.9151 35.0667L41.6484 41.3333H45.6484C47.5151 41.3333 48.9817 42.8 48.9817 44.6667C48.9817 46.5333 47.5151 48 45.6484 48Z" fill="#388E3C"/>
</svg>