<svg xmlns="http://www.w3.org/2000/svg" width="401" height="401" viewBox="0 0 401 401" fill="none">
  <path d="M200.94 400.1C311.397 400.1 400.94 310.557 400.94 200.1C400.94 89.6432 311.397 0.100098 200.94 0.100098C90.483 0.100098 0.939941 89.6432 0.939941 200.1C0.939941 310.557 90.483 400.1 200.94 400.1Z" fill="url(#paint0_linear_79_293)"/>
  <path d="M236.89 44.1801L197.38 75.7701C190.75 81.0201 184.3 86.3701 177.52 91.5401C170.69 96.6601 163.54 101.38 156.14 105.72C126.53 122.91 92.9199 134.21 57.6899 135.96C53.5399 136.17 50.0099 132.99 49.7999 128.85C49.5899 124.71 52.7899 121.18 56.9399 120.98C57.1299 120.97 57.3099 120.97 57.4899 120.97L57.5499 120.98C89.8699 121.8 122.83 113.61 152.58 99.1201C160.02 95.4801 167.29 91.4201 174.3 86.9301C181.28 82.3901 188.2 77.4701 195.15 72.7501L236.89 44.1801Z" fill="white"/>
  <path d="M45.9699 154.34C64.9699 156.58 84.8099 154.53 103.51 148.91C112.94 146.11 121.76 142.24 130.75 137.6C139.69 133.08 148.41 128.16 156.85 122.78C165.28 117.39 173.41 111.52 181.06 105.08L228.38 66.6501C236.35 60.3601 244.88 54.7701 253.08 48.8101C245.24 55.2801 237.13 61.3401 229.57 68.1001L184.84 109.26C177.39 116.35 169.42 122.89 161.11 128.96C152.79 135.01 144.15 140.62 135.27 145.82C126.54 151.03 116.99 155.97 107.13 159.56C87.3799 166.83 66.1599 170.46 44.6699 169.27C40.5199 169.04 37.3499 165.5 37.5799 161.37C37.8099 157.23 41.3599 154.06 45.4999 154.29C45.6299 154.3 45.8199 154.32 45.9699 154.34Z" fill="white"/>
  <path d="M187.07 40.7201L172.84 48.8501C168.05 51.5901 162.92 53.7301 157.83 55.8601C147.59 60.0301 137.07 63.5301 126.36 66.5701C122.35 67.7201 118.15 65.4001 117 61.4001C115.84 57.3901 118.17 53.2101 122.18 52.0601C122.74 51.9001 123.36 51.8001 123.92 51.7701C134.55 51.2801 145.22 50.3101 155.79 48.6401C161.07 47.7601 166.36 46.8801 171.5 45.3501L187.07 40.7201Z" fill="white"/>
  <path d="M79.4599 87.4701C91.5699 87.0501 103.52 85.6901 115.51 83.1701C127.55 80.7301 139.51 77.7201 151.19 73.9101C157.03 71.9901 162.81 69.9001 168.44 67.4701C174.03 65.0601 179.6 62.2201 185.1 59.3701C196.11 53.6201 206.92 47.4201 217.62 41.0001C207.63 48.4501 197.47 55.7201 187.01 62.6001C181.75 66.0301 176.52 69.4101 170.94 72.5201C165.39 75.6001 159.68 78.3401 153.89 80.9101C142.31 86.0201 130.4 90.3201 118.31 94.0701C106.2 97.9201 93.4799 100.7 80.7599 102.42L80.7399 102.43C76.6199 102.98 72.8299 100.11 72.2699 96.0001C71.7099 91.8901 74.5999 88.1101 78.7199 87.5501C78.9599 87.5001 79.2099 87.4801 79.4599 87.4701Z" fill="white"/>
  <path d="M215.95 156.8C227.18 140.13 240.47 124.76 255.59 111.6C270.64 98.3701 287.45 87.0601 305.71 78.9601C287.81 87.8201 271.62 99.7501 257.29 113.44C242.87 127.1 230.51 142.68 220.16 159.53C219.44 160.7 217.9 161.07 216.71 160.35C215.53 159.62 215.16 158.09 215.88 156.91C215.9 156.89 215.94 156.83 215.95 156.8Z" fill="white"/>
  <path d="M293.97 69.7901C275.79 79.9901 259.32 92.9601 244.76 107.69C230.09 122.36 217.55 138.9 206.38 156.34C205.63 157.5 204.09 157.84 202.92 157.09C201.76 156.34 201.41 154.8 202.16 153.64C202.18 153.61 202.21 153.56 202.23 153.54C214.2 136.4 227.63 120.09 243.02 105.9C258.3 91.6301 275.39 79.2501 293.97 69.7901Z" fill="white"/>
  <path d="M355.92 245.85C336.92 243.6 317.08 245.66 298.38 251.28C288.95 254.08 280.14 257.95 271.14 262.59C262.2 267.1 253.48 272.03 245.04 277.4C236.61 282.8 228.48 288.66 220.83 295.1L173.51 333.53C165.54 339.82 157.01 345.41 148.81 351.36C156.65 344.89 164.76 338.83 172.32 332.08L217.05 290.92C224.5 283.83 232.47 277.29 240.78 271.22C249.1 265.17 257.74 259.56 266.62 254.37C275.35 249.15 284.9 244.21 294.76 240.63C314.51 233.36 335.73 229.73 357.22 230.91C361.37 231.14 364.54 234.68 364.31 238.81C364.08 242.95 360.53 246.12 356.39 245.89C356.26 245.89 356.07 245.87 355.92 245.85Z" fill="white"/>
  <path d="M165.01 356.01L204.56 324.38C211.21 319.13 217.62 313.77 224.48 308.6C231.39 303.5 238.67 298.96 246.11 294.73C253.56 290.52 261.19 286.63 268.95 283.04C276.68 279.49 284.55 275.99 292.89 273.19C309.45 267.66 326.81 264.47 344.47 263.87C348.62 263.73 352.1 266.97 352.24 271.12C352.38 275.26 349.12 278.73 344.98 278.87C344.8 278.88 344.59 278.88 344.41 278.87C328.31 278.21 311.92 279.95 296.11 283.97C288.26 285.96 280.44 288.76 272.59 291.68C264.79 294.6 257.11 297.84 249.58 301.38C242.06 304.95 234.69 308.83 227.66 313.24C220.69 317.72 213.75 322.7 206.79 327.4L165.01 356.01Z" fill="white"/>
  <path d="M322.43 312.72C310.32 313.14 298.37 314.5 286.38 317.02C274.34 319.47 262.38 322.47 250.7 326.29C244.86 328.21 239.08 330.31 233.45 332.73C227.86 335.14 222.29 337.98 216.79 340.83C205.78 346.58 194.97 352.79 184.27 359.2C194.26 351.75 204.42 344.48 214.88 337.6C220.14 334.17 225.37 330.79 230.95 327.68C236.5 324.6 242.21 321.86 248 319.29C259.58 314.18 271.49 309.88 283.58 306.13C295.69 302.28 308.41 299.5 321.13 297.78H321.15C325.27 297.22 329.06 300.1 329.62 304.21C330.18 308.31 327.29 312.1 323.17 312.65C322.93 312.69 322.67 312.71 322.43 312.72Z" fill="white"/>
  <path d="M214.83 359.47L229.06 351.34C233.85 348.6 238.98 346.46 244.07 344.33C254.31 340.16 264.84 336.66 275.54 333.62C279.56 332.47 283.75 334.79 284.9 338.79C286.05 342.8 283.73 346.98 279.71 348.13C279.15 348.29 278.53 348.39 277.97 348.42C267.34 348.91 256.68 349.88 246.1 351.54C240.82 352.42 235.53 353.3 230.39 354.83L214.83 359.47Z" fill="white"/>
  <path d="M241.63 182.23C248.49 174.98 254.84 167.21 262.77 160.66C270.57 154.09 279.16 148.36 288.36 143.76C306.75 134.55 327.35 129.16 348.69 129.49C352.84 129.56 356.16 132.97 356.09 137.11C356.02 141.25 352.6 144.56 348.45 144.5C348.23 144.5 348.01 144.48 347.79 144.46H347.74C329.41 142.54 310.13 145.63 292.4 152.67C283.51 156.17 275.04 160.81 267.16 166.33C259.24 171.75 252.31 178.83 244.96 185.36L244.79 185.5C243.85 186.33 242.41 186.25 241.56 185.31C240.8 184.42 240.83 183.08 241.63 182.23Z" fill="white"/>
  <path d="M329.5 110.96C310.78 112.03 292.04 117.94 275.46 127.67C267.21 132.62 259.46 138.46 252.5 145.27C245.44 152.14 238.81 159.49 232.57 167.21C231.73 168.24 230.21 168.4 229.17 167.57C228.18 166.78 227.99 165.37 228.68 164.35C234.33 156 240.47 147.92 247.12 140.23C253.84 132.45 261.59 125.46 270.02 119.39C287.01 107.39 306.85 99.0901 327.98 96.0501C332.09 95.4501 335.91 98.2901 336.51 102.39C337.11 106.49 334.26 110.3 330.15 110.9C329.94 110.93 329.71 110.95 329.5 110.96Z" fill="white"/>
  <path d="M221.35 243.02L199.33 270C191.84 278.95 183.99 287.6 175.68 295.8C159.15 312.25 140.76 326.91 120.57 338.5C140.33 326.19 158.06 310.97 173.88 294.05C181.82 285.62 189.29 276.77 196.4 267.64L217.48 239.82C218.31 238.73 219.88 238.51 220.99 239.34C222.09 240.17 222.31 241.74 221.48 242.84C221.47 242.87 221.45 242.88 221.44 242.9L221.35 243.02Z" fill="white"/>
  <path d="M357.59 179.04C347.91 177.32 337.77 176.87 327.68 177.9C317.6 178.88 307.52 181.01 297.84 184.41C288.17 187.8 278.77 192.22 270.16 197.92C265.82 200.66 261.79 204.12 257.67 207.37L245.29 217.23L245.11 217.36C244.07 218.19 242.55 218.02 241.72 216.98C240.93 215.99 241.05 214.57 241.96 213.72L253.71 202.71C257.67 199.06 261.44 195.25 265.86 191.93C274.5 185.16 284.12 179.65 294.2 175.18C314.41 166.37 336.9 161.94 359.75 164.19C363.88 164.6 366.9 168.27 366.5 172.39C366.09 176.51 362.41 179.53 358.28 179.13C358.09 179.11 357.9 179.09 357.72 179.05L357.59 179.04Z" fill="white"/>
  <path d="M134.18 345.53C153.17 332.38 170.13 316.72 186.1 300.22C194.09 291.97 201.78 283.44 209.26 274.73C216.73 265.91 224.76 257.34 233.32 249.41C241.88 241.45 250.96 234.03 260.43 227.15C269.68 220.23 280.24 213.76 291.22 209.13C313.27 199.73 337.68 195.25 362.26 198.02C366.38 198.48 369.35 202.2 368.89 206.31C368.42 210.43 364.7 213.39 360.57 212.93C360.44 212.92 360.3 212.89 360.17 212.88L360.09 212.87C338.88 209.27 316.14 211.99 295.4 219.58C284.89 223.38 275.33 228.51 265.75 234.87C256.21 241.04 247.02 247.75 238.29 255.03C229.53 262.31 221.32 270.16 213.43 278.52C205.42 286.87 197.21 295.03 188.73 302.9C171.79 318.61 153.86 333.43 134.18 345.53Z" fill="white"/>
  <path d="M160.4 218.09C153.52 225.34 147.16 233.1 139.21 239.64C131.38 246.2 122.78 251.93 113.56 256.52C95.1399 265.7 74.5199 271.07 53.1899 270.7C49.0399 270.63 45.7299 267.21 45.7999 263.07C45.8699 258.93 49.2899 255.63 53.4399 255.7C53.6599 255.7 53.8699 255.71 54.0699 255.73L54.1299 255.74C72.4599 257.63 91.7299 254.49 109.43 247.44C118.31 243.93 126.76 239.28 134.62 233.75C142.52 228.33 149.43 221.23 156.77 214.71L156.95 214.55C157.98 213.64 159.54 213.73 160.46 214.75C161.32 215.7 161.27 217.17 160.4 218.09Z" fill="white"/>
  <path d="M72.3899 289.22C91.1099 288.14 109.85 282.22 126.41 272.48C134.66 267.53 142.41 261.68 149.36 254.88C156.41 248 163.04 240.65 169.28 232.94C170.14 231.88 171.69 231.72 172.76 232.57C173.76 233.38 173.96 234.82 173.25 235.87C167.59 244.22 161.46 252.3 154.8 259.97C148.08 267.76 140.32 274.74 131.88 280.82C114.89 292.81 95.0399 301.11 73.8999 304.14C69.7899 304.73 65.9699 301.89 65.3799 297.79C64.7799 293.69 67.6299 289.88 71.7399 289.29C71.9499 289.27 72.1799 289.24 72.3899 289.22Z" fill="white"/>
  <path d="M267.7 54.6601C248.71 67.8001 231.75 83.4701 215.78 99.9701C207.79 108.22 200.1 116.75 192.62 125.46C185.15 134.27 177.12 142.85 168.56 150.78C160 158.74 150.92 166.16 141.45 173.03C132.2 179.96 121.64 186.43 110.66 191.05C88.6099 200.45 64.1999 204.93 39.6199 202.16C35.4899 201.7 32.5299 197.99 32.9899 193.87C33.4599 189.76 37.1799 186.79 41.3099 187.26C41.4399 187.27 41.5699 187.3 41.7099 187.32L41.7899 187.33C62.9999 190.93 85.74 188.21 106.48 180.62C116.99 176.81 126.55 171.7 136.13 165.33C145.67 159.16 154.86 152.45 163.59 145.17C172.35 137.9 180.56 130.05 188.45 121.69C196.46 113.34 204.67 105.17 213.15 97.3001C230.11 81.5801 248.03 66.7501 267.7 54.6601Z" fill="white"/>
  <path d="M180.54 157.17L202.56 130.19C210.05 121.24 217.9 112.59 226.21 104.39C242.74 87.9401 261.13 73.2801 281.32 61.6901C261.56 74.0001 243.82 89.2201 228.01 106.13C220.07 114.56 212.6 123.41 205.49 132.54L184.41 160.35C183.57 161.44 182.01 161.66 180.9 160.83C179.79 160 179.58 158.43 180.41 157.33C180.42 157.3 180.44 157.29 180.45 157.27L180.54 157.17Z" fill="white"/>
  <path d="M44.2999 221.15C53.9799 222.85 64.1199 223.28 74.1999 222.24C84.2799 221.25 94.3499 219.1 104.01 215.68C113.67 212.28 123.05 207.85 131.64 202.14C135.97 199.39 139.99 195.94 144.11 192.68L156.46 182.81L156.65 182.66C157.78 181.76 159.43 181.94 160.34 183.06C161.2 184.14 161.07 185.68 160.08 186.61L148.3 197.61C144.33 201.26 140.55 205.06 136.12 208.38C127.46 215.14 117.82 220.64 107.72 225.1C87.4799 233.89 64.9799 238.27 42.1299 236C37.9999 235.58 34.9899 231.91 35.3999 227.78C35.8099 223.65 39.4999 220.65 43.6299 221.06C43.8099 221.08 43.9899 221.1 44.1699 221.14L44.2999 221.15Z" fill="white"/>
  <path d="M185.94 243.38C174.71 260.05 161.42 275.42 146.3 288.59C131.25 301.82 114.44 313.13 96.1799 321.23C114.08 312.37 130.27 300.44 144.6 286.75C159.02 273.09 171.38 257.5 181.73 240.66C182.45 239.48 183.99 239.11 185.18 239.83C186.36 240.56 186.73 242.09 186 243.27C185.99 243.3 185.96 243.35 185.94 243.38Z" fill="white"/>
  <path d="M107.92 330.4C126.1 320.2 142.57 307.22 157.13 292.5C171.8 277.83 184.34 261.29 195.51 243.85C196.26 242.69 197.8 242.35 198.97 243.1C200.14 243.84 200.48 245.39 199.73 246.55C199.72 246.57 199.68 246.62 199.66 246.65C187.69 263.79 174.26 280.1 158.87 294.29C143.59 308.56 126.49 320.93 107.92 330.4Z" fill="white"/>
  <defs>
    <linearGradient id="paint0_linear_79_293" x1="60.7588" y1="56.5184" x2="334.341" y2="336.719" gradientUnits="userSpaceOnUse">
      <stop offset="0.000679326" stop-color="#3AD7EE"/>
      <stop offset="1" stop-color="#1BAED8"/>
    </linearGradient>
  </defs>
</svg>