<svg xmlns="http://www.w3.org/2000/svg" width="17" height="16" viewBox="0 0 17 16" fill="none">
  <path d="M12.7578 0H4.25781C2.18674 0 0.507812 1.67893 0.507812 3.75V12.25C0.507812 14.3211 2.18674 16 4.25781 16H12.7578C14.8289 16 16.5078 14.3211 16.5078 12.25V3.75C16.5078 1.67893 14.8289 0 12.7578 0Z" fill="#F0DB4F"/>
  <path d="M4.71481 13.3708L5.93919 12.6298C6.17544 13.0486 6.39031 13.4029 6.90575 13.4029C7.39981 13.4029 7.71131 13.2097 7.71131 12.4579V7.34556H9.21494V12.4792C9.21494 14.0365 8.30206 14.7454 6.97019 14.7454C5.76738 14.7454 5.06925 14.1226 4.71481 13.3708ZM10.0316 13.2096L11.2559 12.5008C11.5782 13.0271 11.9971 13.4137 12.7381 13.4137C13.3611 13.4137 13.7584 13.1022 13.7584 12.6726C13.7584 12.1571 13.3503 11.9745 12.6629 11.6739L12.2871 11.5127C11.2023 11.0509 10.4826 10.4709 10.4826 9.24656C10.4826 8.11881 11.3419 7.25956 12.6844 7.25956C13.6403 7.25956 14.3277 7.59256 14.8217 8.4625L13.651 9.21431C13.3932 8.7525 13.1141 8.56994 12.6844 8.56994C12.2441 8.56994 11.9648 8.84919 11.9648 9.21431C11.9648 9.66538 12.2441 9.848 12.8884 10.1273L13.2643 10.2884C14.5424 10.8362 15.262 11.3946 15.262 12.6511C15.262 14.0045 14.1988 14.7455 12.7703 14.7455C11.3741 14.7455 10.4719 14.0796 10.0316 13.2096Z" fill="#323330"/>
</svg>