<svg xmlns="http://www.w3.org/2000/svg" width="16" height="16" viewBox="0 0 16 16" fill="none">
  <path d="M12.25 0H3.75C1.67893 0 0 1.67893 0 3.75V12.25C0 14.3211 1.67893 16 3.75 16H12.25C14.3211 16 16 14.3211 16 12.25V3.75C16 1.67893 14.3211 0 12.25 0Z" fill="#F4F2ED"/>
  <path d="M6.35213 11.4137C6.35213 11.4137 5.87212 11.7058 6.68619 11.7894C7.66919 11.9146 8.18894 11.8937 9.27413 11.6851C9.27413 11.6851 9.56625 11.8732 9.96288 12.0191C7.52069 13.0626 4.43181 11.9565 6.35213 11.4137ZM6.03906 10.0571C6.03906 10.0571 5.51719 10.4537 6.33119 10.5371C7.39544 10.6414 8.23062 10.6623 9.67075 10.3704C9.67075 10.3704 9.85881 10.5792 10.1717 10.6835C7.229 11.5601 3.93106 10.7666 6.03906 10.0571ZM11.7997 12.4365C11.7997 12.4365 12.1544 12.7286 11.4031 12.9584C10.0046 13.3757 5.53812 13.5012 4.28581 12.9584C3.84775 12.7703 4.6825 12.4989 4.95369 12.4574C5.22506 12.3948 5.37106 12.3948 5.37106 12.3948C4.89106 12.0608 2.17762 13.0836 3.9935 13.3779C8.98181 14.1921 13.0937 13.0231 11.7995 12.4386L11.7997 12.4365ZM6.58169 8.63769C6.58169 8.63769 4.30656 9.1805 5.76744 9.36812C6.39362 9.45144 7.625 9.43075 8.773 9.34719C9.71225 9.26381 10.6536 9.09675 10.6536 9.09675C10.6536 9.09675 10.3196 9.24288 10.0901 9.38888C7.77137 9.99469 3.32569 9.72331 4.59894 9.09713C5.68456 8.57525 6.58169 8.63769 6.58169 8.63769ZM10.6514 10.9128C12.9894 9.70213 11.9038 8.53338 11.1524 8.67956C10.9643 8.72125 10.881 8.76294 10.881 8.76294C10.881 8.76294 10.9436 8.63769 11.0898 8.59625C12.5716 8.07437 13.7406 10.1616 10.6098 10.9756C10.6098 10.9756 10.6308 10.9544 10.6514 10.9128ZM6.81119 14.2102C9.06537 14.3564 12.5092 14.1269 12.5927 13.0622C12.5927 13.0622 12.4261 13.4796 10.7353 13.7927C8.81513 14.1474 6.4355 14.1057 5.03725 13.876C5.03725 13.876 5.32919 14.1267 6.81119 14.2102Z" fill="#4E7896"/>
  <path d="M9.23031 1.75C9.23031 1.75 10.5243 3.06494 7.99894 5.0475C5.97431 6.6545 7.5395 7.573 7.99894 8.61631C6.80925 7.55206 5.95381 6.61263 6.53788 5.736C7.39569 4.44269 9.75387 3.8165 9.23031 1.75ZM8.5625 7.74013C9.16769 8.42888 8.39581 9.05506 8.39581 9.05506C8.39581 9.05506 9.94025 8.26219 9.23075 7.28088C8.58363 6.34163 8.08275 5.88238 10.7961 4.31681C10.7961 4.31681 6.51688 5.3815 8.5625 7.74013Z" fill="#F58219"/>
</svg>