<svg width="80" height="80" viewBox="0 0 80 80" fill="none" xmlns="http://www.w3.org/2000/svg">
<rect width="80" height="80" rx="20" fill="black"/>
<path fill-rule="evenodd" clip-rule="evenodd" d="M22 21C20.8954 21 20 21.8954 20 23L20 57C20 58.1046 20.8954 59 22 59H58C59.1046 59 60 58.1046 60 57V23C60 21.8954 59.1046 21 58 21L22 21ZM40.1585 28.3578C33.6744 28.3578 28.418 33.6468 28.418 40.1309C28.418 46.615 33.6744 51.904 40.1585 51.904C46.6426 51.904 51.899 46.615 51.8991 40.1309C51.8991 33.6468 46.6426 28.3578 40.1585 28.3578Z" fill="#0E7BFC"/>
</svg>
