<svg xmlns="http://www.w3.org/2000/svg" width="17" height="16" viewBox="0 0 17 16" fill="none">
  <path d="M13.2266 0H4.72656C2.65549 0 0.976562 1.67893 0.976562 3.75V12.25C0.976562 14.3211 2.65549 16 4.72656 16H13.2266C15.2976 16 16.9766 14.3211 16.9766 12.25V3.75C16.9766 1.67893 15.2976 0 13.2266 0Z" fill="#0E1128"/>
  <path fill-rule="evenodd" clip-rule="evenodd" d="M12.923 8.94512C12.8093 9.49044 12.3039 10.8902 10.692 11.6481L10.0448 10.9235L8.95256 12.0166C8.33131 12.0084 7.72029 11.8572 7.16694 11.5746C6.61436 11.2927 6.13443 10.8868 5.76463 10.3888C5.88063 10.4248 6.00044 10.4472 6.12162 10.4557C6.30056 10.4589 6.49412 10.3936 6.49412 10.0946V7.14494C6.49665 7.0691 6.48134 6.99372 6.44944 6.92487C6.41745 6.85593 6.36978 6.79543 6.31025 6.74819C6.25057 6.70086 6.18069 6.66807 6.10614 6.65243C6.03159 6.63678 5.95442 6.63871 5.88075 6.65806C5.375 6.77406 4.97112 8.03025 4.97112 8.03025C4.96556 7.45012 5.08684 6.87578 5.3265 6.34744C5.56655 5.81841 5.91912 5.34812 6.35962 4.96938C6.94058 4.46946 7.65066 4.14337 8.40844 4.0285C7.85625 4.34175 7.54606 4.85256 7.54606 5.281C7.54606 5.97075 7.96344 5.88719 8.08687 5.78575V9.76675C8.10794 9.81669 8.13531 9.86375 8.16844 9.90675C8.22369 9.98279 8.29631 10.0445 8.38025 10.0868C8.46432 10.1291 8.55725 10.1509 8.65137 10.1502C9.06912 10.1502 9.61119 9.67544 9.61119 9.67544V6.45312C9.61119 6.12531 9.363 5.72938 9.11438 5.59344C9.11438 5.59344 9.5745 5.51225 9.9295 5.78288C9.99624 5.70179 10.0671 5.62418 10.1418 5.55037C10.9704 4.741 11.7509 4.5105 12.4009 4.39531C12.4009 4.39531 11.219 5.31994 11.219 6.56069C11.219 7.48331 11.2431 9.7335 11.2431 9.7335C11.6816 10.1551 12.3337 9.54606 12.923 8.94512Z" fill="white"/>
  <path fill-rule="evenodd" clip-rule="evenodd" d="M9.00594 1.4375C7.70219 1.4375 6.42775 1.82237 5.34369 2.54344C4.26079 3.2632 3.41586 4.28816 2.91594 5.4885C2.41706 6.68704 2.28647 8.007 2.54081 9.28006C2.79576 10.5541 3.42371 11.7237 4.34488 12.6401C5.26809 13.5586 6.44241 14.1835 7.72 14.436C8.99862 14.6893 10.3235 14.5594 11.5286 14.0626C12.7319 13.5669 13.7613 12.7259 14.4869 11.6456C15.2109 10.5676 15.5977 9.29842 15.5979 7.99981C15.5979 6.25938 14.9034 4.59025 13.6672 3.35956C12.4309 2.12894 10.7543 1.4375 9.00594 1.4375ZM9.00594 14.2992C7.755 14.2993 6.5319 13.9299 5.49013 13.2374C4.45053 12.5464 3.63938 11.5625 3.15944 10.4101C2.68063 9.25948 2.55531 7.99233 2.79944 6.77019C3.04422 5.54708 3.64706 4.42434 4.53137 3.54463C5.41776 2.66293 6.54513 2.0631 7.77163 1.82062C8.99919 1.57756 10.2716 1.70237 11.4279 2.17925C12.583 2.65516 13.5713 3.46261 14.2679 4.49969C14.9628 5.53473 15.3339 6.75314 15.3341 7.99981C15.3341 9.67063 14.6674 11.273 13.4807 12.4544C12.2939 13.6359 10.6843 14.2992 9.00594 14.2992Z" fill="white"/>
</svg>