<svg xmlns="http://www.w3.org/2000/svg" width="16" height="16" viewBox="0 0 16 16" fill="none">
  <path d="M12.25 0H3.75C1.67893 0 0 1.67893 0 3.75V12.25C0 14.3211 1.67893 16 3.75 16H12.25C14.3211 16 16 14.3211 16 12.25V3.75C16 1.67893 14.3211 0 12.25 0Z" fill="#F4F2ED"/>
  <path d="M6.597 8.58019C6.64544 7.71269 7.06819 6.94837 7.706 6.40656C8.3315 5.87444 9.17344 5.54919 10.0921 5.54919C11.0098 5.54919 11.8517 5.87444 12.4776 6.40656C13.115 6.94837 13.5378 7.71269 13.5866 8.57925C13.635 9.47063 13.2784 10.2987 12.6529 10.9125C12.0151 11.5369 11.1079 11.9287 10.0921 11.9287C9.07619 11.9287 8.16719 11.5369 7.52981 10.9125C6.90381 10.2987 6.54819 9.47063 6.597 8.58019Z" fill="white"/>
  <path d="M8.29887 8.65806C8.32369 8.21294 8.54063 7.82075 8.86788 7.54275C9.18881 7.26969 9.62081 7.10281 10.0922 7.10281C10.5631 7.10281 10.9951 7.26969 11.3162 7.54275C11.6433 7.82075 11.8602 8.21294 11.8853 8.65756C11.9101 9.11494 11.7271 9.53981 11.4062 9.85481C11.0789 10.1752 10.6134 10.3762 10.0922 10.3762C9.57094 10.3762 9.1045 10.1752 8.77744 9.85481C8.45631 9.53981 8.27381 9.11494 8.29887 8.65806Z" fill="#265787"/>
  <path d="M5.44312 9.5575C5.44619 9.73169 5.50144 10.0702 5.58437 10.3346C5.75875 10.8941 6.05437 11.4117 6.46569 11.8679C6.88787 12.3368 7.40769 12.7134 8.00813 12.9808C8.63925 13.2616 9.32306 13.4048 10.0334 13.4036C10.7425 13.4026 11.4263 13.2567 12.0574 12.9738C12.6579 12.7038 13.1772 12.3255 13.5987 11.8564C14.0098 11.3982 14.305 10.8797 14.4797 10.3202C14.5669 10.0414 14.6224 9.75378 14.6454 9.46262C14.6672 9.1786 14.658 8.89304 14.618 8.611C14.5398 8.05781 14.3492 7.53875 14.0559 7.06563C13.7877 6.63088 13.4419 6.25025 13.0308 5.92987L13.0317 5.92912L8.88262 2.72806C8.87887 2.72519 8.87587 2.72213 8.87187 2.71956C8.59962 2.50956 8.14188 2.51031 7.8425 2.72075C7.53981 2.93356 7.50519 3.28544 7.77456 3.50744L7.77338 3.50863L9.50394 4.92263L4.22937 4.92825H4.22237C3.78637 4.92875 3.36731 5.21612 3.28437 5.57937C3.19912 5.94937 3.49519 6.25631 3.9485 6.258L3.94781 6.25962L6.62125 6.25444L1.85063 9.93388C1.84456 9.93838 1.838 9.94306 1.83238 9.94756C1.38238 10.2938 1.23688 10.8696 1.52031 11.2339C1.808 11.6045 2.41969 11.6052 2.87438 11.2361L5.47806 9.09494C5.47806 9.09494 5.44006 9.384 5.44312 9.5575ZM12.1336 10.5254C11.5971 11.0746 10.8461 11.3861 10.0334 11.3877C9.2195 11.3891 8.46844 11.0805 7.932 10.5323C7.66988 10.2651 7.47725 9.95769 7.3585 9.63025C7.24161 9.30788 7.19668 8.96383 7.22687 8.62225C7.25519 8.28544 7.355 7.96413 7.51431 7.67344C7.67081 7.38763 7.88631 7.12944 8.15244 6.911C8.67394 6.484 9.33781 6.25281 10.0322 6.25187C10.7272 6.25094 11.3907 6.47994 11.9127 6.90556C12.1783 7.12306 12.3936 7.38038 12.5501 7.66563C12.7116 7.9581 12.8099 8.28121 12.8387 8.61406C12.8684 8.95543 12.8233 9.29916 12.7066 9.62131C12.5876 9.94969 12.3957 10.2571 12.1336 10.5254Z" fill="#EA7600"/>
</svg>