<svg xmlns="http://www.w3.org/2000/svg" width="17" height="16" viewBox="0 0 17 16" fill="none">
  <path d="M12.7578 0H4.25781C2.18674 0 0.507812 1.67893 0.507812 3.75V12.25C0.507812 14.3211 2.18674 16 4.25781 16H12.7578C14.8289 16 16.5078 14.3211 16.5078 12.25V3.75C16.5078 1.67893 14.8289 0 12.7578 0Z" fill="#0277BD"/>
  <path d="M3.86737 6.41569L4.04625 8.41206H8.51381V6.41569H3.86737ZM8.51375 2.375H3.50781L3.68931 4.37138H8.51375V2.375ZM8.51375 13.6776V11.6005L8.505 11.6028L6.28162 11.0025L6.1395 9.41025H4.13544L4.41512 12.5449L8.50456 13.6801L8.51375 13.6776Z" fill="#EBEBEB"/>
  <path d="M10.9652 8.41206L10.7334 11.0012L8.50688 11.6022V13.6791L12.5996 12.5449L13.0987 6.95181L13.1474 6.41569L13.5078 2.375H8.50688V4.37138H11.3199L11.1383 6.41569H8.50688V8.41206H10.9652Z" fill="white"/>
</svg>