<svg xmlns="http://www.w3.org/2000/svg" width="17" height="16" viewBox="0 0 17 16" fill="none">
  <path d="M3.30942 0.193848H13.6469C15.2094 0.193848 16.4844 1.45635 16.4844 3.03135V12.9688C16.4844 14.5313 15.2219 15.8063 13.6469 15.8063H3.30942C1.73442 15.7938 0.471924 14.5313 0.471924 12.9563V3.03135C0.471924 1.45635 1.73442 0.193848 3.30942 0.193848Z" fill="#330000"/>
  <path d="M8.20942 9.53135H5.72192L5.22192 11.0938C5.20942 11.1563 5.15942 11.1938 5.09692 11.1813H3.84692C3.77192 11.1813 3.75942 11.1438 3.77192 11.0563L5.92192 4.88135C5.94692 4.81885 5.95942 4.74385 5.98442 4.65635C6.00942 4.51885 6.02192 4.36885 6.02192 4.21885C6.00942 4.18135 6.04692 4.15635 6.07192 4.14385H7.79692C7.84692 4.14385 7.87192 4.16885 7.88442 4.19385L10.3219 11.0563C10.3469 11.1313 10.3219 11.1688 10.2594 11.1688H8.85942C8.80942 11.1813 8.77192 11.1438 8.74692 11.0938L8.20942 9.53135ZM6.10942 8.16885H7.79692C7.75942 8.03135 7.70942 7.85635 7.64692 7.69385C7.58442 7.51885 7.52192 7.31885 7.47192 7.11885C7.40942 6.90635 7.34692 6.70635 7.28442 6.50635C7.22192 6.29385 7.15942 6.10635 7.10942 5.91885C7.05942 5.73135 7.00942 5.55635 6.95942 5.39385H6.94692C6.88442 5.68135 6.80942 5.96885 6.72192 6.25635C6.62192 6.58135 6.52192 6.90635 6.40942 7.24385C6.30942 7.58135 6.20942 7.89385 6.10942 8.16885ZM11.8094 5.33135C11.5844 5.34385 11.3719 5.25635 11.2219 5.09385C11.0719 4.93135 10.9844 4.70635 10.9969 4.48135C10.9844 4.25635 11.0719 4.04385 11.2344 3.89385C11.3969 3.74385 11.6094 3.65635 11.8219 3.65635C12.0844 3.65635 12.2844 3.73135 12.4344 3.89385C12.5844 4.05635 12.6594 4.26885 12.6594 4.48135C12.6719 4.70635 12.5844 4.93135 12.4219 5.09385C12.2594 5.25635 12.0344 5.34385 11.8094 5.33135ZM11.0594 11.1188V5.98135C11.0594 5.91885 11.0844 5.89385 11.1469 5.89385H12.4719C12.5344 5.89385 12.5594 5.93135 12.5594 5.98135V11.1188C12.5594 11.1938 12.5344 11.2313 12.4719 11.2313H11.1594C11.0969 11.2188 11.0594 11.1813 11.0594 11.1188Z" fill="#FF9A00"/>
</svg>