<svg version="1.1" xmlns="http://www.w3.org/2000/svg" xmlns:xlink="http://www.w3.org/1999/xlink" x="0px" y="0px" viewBox="0 0 400 400" style="enable-background:new 0 0 400 400;" xml:space="preserve">
<style type="text/css">
	.st0{fill:url(#SVGID_1_);}
	.st1{fill:url(#SVGID_00000159452026937864759890000001604787857563989912_);}
	.st2{fill:url(#SVGID_00000083046397439901680110000001061935202581214609_);}
	.st3{fill:url(#SVGID_00000121996027062438643310000003159557918872077192_);}
	.st4{fill:url(#SVGID_00000033344814455974273880000008232834950123377811_);}
	.st5{fill:url(#SVGID_00000050664353443992748720000010204524186766376595_);}
	.st6{fill:url(#SVGID_00000134966898411905503930000005944705711103415714_);}
	.st7{fill:url(#SVGID_00000084499177236330483670000001502207582110851252_);}
	.st8{fill:url(#SVGID_00000089552379423389895260000014050525833069515431_);}
	.st9{fill:url(#SVGID_00000079479985523986849310000016828618932849764748_);}
	.st10{fill:url(#SVGID_00000063598957634656201170000005542634168720330665_);}
	.st11{fill:url(#SVGID_00000045581380279072085610000007637461662062616224_);}
	.st12{fill:url(#SVGID_00000032642122445502713170000009304248117954392724_);}
	.st13{fill:url(#SVGID_00000088095963847510620420000003447715037174197897_);}
	.st14{fill:url(#SVGID_00000134949086913736334670000015886813799050563237_);}
	.st15{fill:url(#SVGID_00000104669841081895996410000010715751712953468819_);}
	.st16{fill:url(#SVGID_00000036938363976137745720000010684425317996330902_);}
	.st17{fill:url(#SVGID_00000176725120105855248140000005053274441102023860_);}
	.st18{fill:url(#SVGID_00000002354187229226679190000011989728684547548825_);}
	.st19{fill:url(#SVGID_00000181797255747087145370000011693127274596813472_);}
	.st20{fill:url(#SVGID_00000054249888329767596680000005331133009721854345_);}
	.st21{fill:url(#SVGID_00000139283221591134499260000003413396491534712210_);}
	.st22{fill:url(#SVGID_00000008868566252055948590000013773187885727538104_);}
	.st23{fill:url(#SVGID_00000106857771081995380060000013764663780619912124_);}
	.st24{fill:url(#SVGID_00000177462460178025709180000017467976284365618837_);}
	.st25{fill:url(#SVGID_00000141449858088993883660000000514808470494053513_);}
	.st26{fill:url(#SVGID_00000004519065579677253270000004174766562733881017_);}
	.st27{fill:url(#SVGID_00000062161716162060604360000016475398274785413253_);}
	.st28{fill:url(#SVGID_00000007401996883947375270000006755155723731962547_);}
</style>
<g id="Layer_2">
	<linearGradient id="SVGID_1_" gradientUnits="userSpaceOnUse" x1="-18.9624" y1="-2.091" x2="402.9502" y2="387.3126">
		<stop offset="0.06" style="stop-color:#A9DDE4"></stop>
		<stop offset="0.48" style="stop-color:#2F87FF"></stop>
		<stop offset="0.64" style="stop-color:#2F87FF"></stop>
		<stop offset="1" style="stop-color:#7155C7"></stop>
	</linearGradient>
	<circle class="st0" cx="200" cy="200" r="200"></circle>
</g>
<g id="Layer_1">
	<g>
		
			<linearGradient id="SVGID_00000080885590302721911640000013192216532811291796_" gradientUnits="userSpaceOnUse" x1="35.0851" y1="-2330.2197" x2="170.675" y2="-2455.0457" gradientTransform="matrix(1 0 0 1 0 2497.27)">
			<stop offset="0" style="stop-color:#EBEBEB;stop-opacity:0"></stop>
			<stop offset="0.3" style="stop-color:#EBEBEB"></stop>
			<stop offset="0.5" style="stop-color:#EBEBEB"></stop>
			<stop offset="0.7" style="stop-color:#EBEBEB"></stop>
			<stop offset="1" style="stop-color:#EBEBEB;stop-opacity:0"></stop>
		</linearGradient>
		<path style="fill:url(#SVGID_00000080885590302721911640000013192216532811291796_);" d="M198.54,40.32
			c-20.54,2.4-40.55,8.05-59.24,16.75c-36.99,17.46-66.48,47.26-83.24,84.11c-8.34,18.61-13.56,38.43-15.47,58.67
			c-1.9-20.85,0.98-41.87,8.43-61.5c15.06-40.21,46.78-72.22,87.23-88.1C156,42.4,177.28,39,198.53,40.32L198.54,40.32z"></path>
		
			<linearGradient id="SVGID_00000150075272055841504890000011925849620284047547_" gradientUnits="userSpaceOnUse" x1="54.8704" y1="-2326.448" x2="174.3674" y2="-2436.5134" gradientTransform="matrix(1 0 0 1 0 2497.27)">
			<stop offset="0" style="stop-color:#EBEBEB;stop-opacity:0"></stop>
			<stop offset="0.3" style="stop-color:#EBEBEB"></stop>
			<stop offset="0.5" style="stop-color:#EBEBEB"></stop>
			<stop offset="0.7" style="stop-color:#EBEBEB"></stop>
			<stop offset="1" style="stop-color:#EBEBEB;stop-opacity:0"></stop>
		</linearGradient>
		<path style="fill:url(#SVGID_00000150075272055841504890000011925849620284047547_);" d="M59.97,199.84
			c-1.9-18.4,0.51-36.97,7.03-54.32c13.16-35.6,41.22-63.95,77.07-77.84c17.46-6.87,36.29-9.71,55.05-8.31
			c-18.03,2.33-35.58,7.44-52,15.16c-32.38,15.46-58.24,41.56-73.1,73.8c-7.4,16.34-12.14,33.73-14.04,51.51H59.97z"></path>
		
			<linearGradient id="SVGID_00000153674115324673736220000015949259098028893571_" gradientUnits="userSpaceOnUse" x1="74.6143" y1="-2322.7183" x2="177.926" y2="-2417.5747" gradientTransform="matrix(1 0 0 1 0 2497.27)">
			<stop offset="0" style="stop-color:#EBEBEB;stop-opacity:0"></stop>
			<stop offset="0.3" style="stop-color:#EBEBEB"></stop>
			<stop offset="0.5" style="stop-color:#EBEBEB"></stop>
			<stop offset="0.7" style="stop-color:#EBEBEB"></stop>
			<stop offset="1" style="stop-color:#EBEBEB;stop-opacity:0"></stop>
		</linearGradient>
		<path style="fill:url(#SVGID_00000153674115324673736220000015949259098028893571_);" d="M79.36,199.84
			c-1.9-15.88,0-31.99,5.54-47.03c11.2-30.93,35.48-55.56,66.57-67.51c15.12-5.92,31.43-8.27,47.63-6.86
			c-15.47,2.32-30.5,6.94-44.56,13.69c-27.64,13.52-49.73,35.92-62.64,63.47c-6.44,14.04-10.67,28.94-12.56,44.23H79.36z"></path>
		
			<linearGradient id="SVGID_00000155143475506458757980000002788628300417133228_" gradientUnits="userSpaceOnUse" x1="94.3871" y1="-2318.9331" x2="181.6322" y2="-2399.0549" gradientTransform="matrix(1 0 0 1 0 2497.27)">
			<stop offset="0" style="stop-color:#EBEBEB;stop-opacity:0"></stop>
			<stop offset="0.3" style="stop-color:#EBEBEB"></stop>
			<stop offset="0.5" style="stop-color:#EBEBEB"></stop>
			<stop offset="0.7" style="stop-color:#EBEBEB"></stop>
			<stop offset="1" style="stop-color:#EBEBEB;stop-opacity:0"></stop>
		</linearGradient>
		<path style="fill:url(#SVGID_00000155143475506458757980000002788628300417133228_);" d="M98.74,199.84
			c-1.9-13.42-0.49-27.09,4.13-39.86c9.3-26.33,29.96-47.29,56.43-57.24c12.83-4.93,26.7-6.74,40.39-5.25
			c-12.97,2.24-25.54,6.31-37.32,12.08c-23.02,11.52-41.47,30.23-52.49,53.2C104.37,174.54,100.63,187.02,98.74,199.84z"></path>
		
			<linearGradient id="SVGID_00000110456036839435246780000005953572827226021022_" gradientUnits="userSpaceOnUse" x1="114.122" y1="-2315.1458" x2="185.2873" y2="-2380.3489" gradientTransform="matrix(1 0 0 1 0 2497.27)">
			<stop offset="0" style="stop-color:#EBEBEB;stop-opacity:0"></stop>
			<stop offset="0.3" style="stop-color:#EBEBEB"></stop>
			<stop offset="0.5" style="stop-color:#EBEBEB"></stop>
			<stop offset="0.7" style="stop-color:#EBEBEB"></stop>
			<stop offset="1" style="stop-color:#EBEBEB;stop-opacity:0"></stop>
		</linearGradient>
		<path style="fill:url(#SVGID_00000110456036839435246780000005953572827226021022_);" d="M118.13,199.84
			c-1.91-10.92-0.99-22.15,2.68-32.63c7.36-21.7,24.31-38.95,46.12-46.93c10.53-3.97,21.91-5.25,33.08-3.72
			c-10.43,2.19-20.51,5.72-29.98,10.54c-18.34,9.54-33.11,24.56-42.18,42.9c-4.56,9.47-7.84,19.51-9.7,29.84L118.13,199.84z"></path>
		
			<linearGradient id="SVGID_00000044142691934830799370000014218285891199365013_" gradientUnits="userSpaceOnUse" x1="133.7517" y1="-2311.3979" x2="188.7185" y2="-2361.009" gradientTransform="matrix(1 0 0 1 0 2497.27)">
			<stop offset="0" style="stop-color:#EBEBEB;stop-opacity:0"></stop>
			<stop offset="0.3" style="stop-color:#EBEBEB"></stop>
			<stop offset="0.5" style="stop-color:#EBEBEB"></stop>
			<stop offset="0.7" style="stop-color:#EBEBEB"></stop>
			<stop offset="1" style="stop-color:#EBEBEB;stop-opacity:0"></stop>
		</linearGradient>
		<path style="fill:url(#SVGID_00000044142691934830799370000014218285891199365013_);" d="M137.51,199.84
			c-3.98-16.38,2.2-34.92,14.42-47.53c12.14-12.68,30.64-19.75,47.49-16.66c-7.78,2.22-15.28,5.32-22.33,9.21
			c-13.44,7.64-24.35,18.94-31.39,32.54c-3.59,7.15-6.33,14.67-8.17,22.42L137.51,199.84z"></path>
		
			<linearGradient id="SVGID_00000130627991812364463040000003406051681523372470_" gradientUnits="userSpaceOnUse" x1="153.3548" y1="-2307.5708" x2="192.1627" y2="-2341.8806" gradientTransform="matrix(1 0 0 1 0 2497.27)">
			<stop offset="0" style="stop-color:#EBEBEB;stop-opacity:0"></stop>
			<stop offset="0.3" style="stop-color:#EBEBEB"></stop>
			<stop offset="0.5" style="stop-color:#EBEBEB"></stop>
			<stop offset="0.7" style="stop-color:#EBEBEB"></stop>
			<stop offset="1" style="stop-color:#EBEBEB;stop-opacity:0"></stop>
		</linearGradient>
		<path style="fill:url(#SVGID_00000130627991812364463040000003406051681523372470_);" d="M156.89,199.84
			c-3.97-11.33,0.04-24.83,8.59-33.87c8.44-9.13,21.8-14.19,33.62-11.19c-5.13,2.18-10.05,4.8-14.72,7.81
			c-8.63,5.65-15.75,13.26-20.78,22.17c-2.68,4.83-4.92,9.87-6.7,15.08H156.89z"></path>
		
			<linearGradient id="SVGID_00000161617181742423182110000005551768640371583671_" gradientUnits="userSpaceOnUse" x1="42.4468" y1="-2268.063" x2="166.9564" y2="-2132.4993" gradientTransform="matrix(1 0 0 1 0 2497.27)">
			<stop offset="0" style="stop-color:#EBEBEB;stop-opacity:0"></stop>
			<stop offset="0.3" style="stop-color:#EBEBEB"></stop>
			<stop offset="0.5" style="stop-color:#EBEBEB"></stop>
			<stop offset="0.7" style="stop-color:#EBEBEB"></stop>
			<stop offset="1" style="stop-color:#EBEBEB;stop-opacity:0"></stop>
		</linearGradient>
		<path style="fill:url(#SVGID_00000161617181742423182110000005551768640371583671_);" d="M40.29,201.63
			c2.4,20.49,8.05,40.44,16.75,59.1c17.46,36.9,47.26,66.32,84.09,83.04c18.61,8.31,38.43,13.53,58.67,15.43
			c-20.85,1.9-41.87-0.98-61.5-8.42c-40.21-15.02-72.22-46.67-88.1-87.03c-7.85-19.69-11.25-40.92-9.93-62.13L40.29,201.63z"></path>
		
			<linearGradient id="SVGID_00000054975160489936104200000001414809933634701245_" gradientUnits="userSpaceOnUse" x1="60.9657" y1="-2271.7278" x2="170.741" y2="-2152.2571" gradientTransform="matrix(1 0 0 1 0 2497.27)">
			<stop offset="0" style="stop-color:#EBEBEB;stop-opacity:0"></stop>
			<stop offset="0.3" style="stop-color:#EBEBEB"></stop>
			<stop offset="0.5" style="stop-color:#EBEBEB"></stop>
			<stop offset="0.7" style="stop-color:#EBEBEB"></stop>
			<stop offset="1" style="stop-color:#EBEBEB;stop-opacity:0"></stop>
		</linearGradient>
		<path style="fill:url(#SVGID_00000054975160489936104200000001414809933634701245_);" d="M199.82,339.87
			c-18.4,1.89-36.97-0.5-54.32-7c-35.6-13.13-63.95-41.13-77.84-76.89c-6.87-17.41-9.71-36.21-8.31-54.91
			c2.33,17.99,7.44,35.5,15.16,51.87c15.46,32.3,41.56,58.11,73.8,72.93c16.34,7.39,33.73,12.11,51.52,14L199.82,339.87z"></path>
		
			<linearGradient id="SVGID_00000059281573452757833700000004054207755611356561_" gradientUnits="userSpaceOnUse" x1="79.8709" y1="-2275.2532" x2="174.4766" y2="-2171.9551" gradientTransform="matrix(1 0 0 1 0 2497.27)">
			<stop offset="0" style="stop-color:#EBEBEB;stop-opacity:0"></stop>
			<stop offset="0.3" style="stop-color:#EBEBEB"></stop>
			<stop offset="0.5" style="stop-color:#EBEBEB"></stop>
			<stop offset="0.7" style="stop-color:#EBEBEB"></stop>
			<stop offset="1" style="stop-color:#EBEBEB;stop-opacity:0"></stop>
		</linearGradient>
		<path style="fill:url(#SVGID_00000059281573452757833700000004054207755611356561_);" d="M199.82,320.54
			c-15.88,1.9-31.99,0-47.03-5.53c-30.93-11.17-55.56-35.4-67.51-66.42c-5.91-15.08-8.27-31.35-6.86-47.53
			c2.32,15.43,6.94,30.43,13.69,44.47c13.52,27.57,35.92,49.61,63.49,62.49c14.04,6.42,28.94,10.65,44.23,12.53L199.82,320.54z"></path>
		
			<linearGradient id="SVGID_00000048477315145940311910000005897263157059079332_" gradientUnits="userSpaceOnUse" x1="98.3509" y1="-2278.9199" x2="178.275" y2="-2191.688" gradientTransform="matrix(1 0 0 1 0 2497.27)">
			<stop offset="0" style="stop-color:#EBEBEB;stop-opacity:0"></stop>
			<stop offset="0.3" style="stop-color:#EBEBEB"></stop>
			<stop offset="0.5" style="stop-color:#EBEBEB"></stop>
			<stop offset="0.7" style="stop-color:#EBEBEB"></stop>
			<stop offset="1" style="stop-color:#EBEBEB;stop-opacity:0"></stop>
		</linearGradient>
		<path style="fill:url(#SVGID_00000048477315145940311910000005897263157059079332_);" d="M199.82,301.2
			c-13.42,1.9-27.09,0.49-39.86-4.12c-26.33-9.27-47.29-29.88-57.24-56.3c-4.93-12.81-6.74-26.63-5.25-40.3
			c2.24,12.94,6.31,25.48,12.08,37.24c11.52,22.95,30.23,41.38,53.2,52.35C174.52,295.58,187,299.32,199.82,301.2z"></path>
		
			<linearGradient id="SVGID_00000114785784116206069180000018377963951175819910_" gradientUnits="userSpaceOnUse" x1="117.0259" y1="-2282.531" x2="182.0706" y2="-2211.3789" gradientTransform="matrix(1 0 0 1 0 2497.27)">
			<stop offset="0" style="stop-color:#EBEBEB;stop-opacity:0"></stop>
			<stop offset="0.3" style="stop-color:#EBEBEB"></stop>
			<stop offset="0.5" style="stop-color:#EBEBEB"></stop>
			<stop offset="0.7" style="stop-color:#EBEBEB"></stop>
			<stop offset="1" style="stop-color:#EBEBEB;stop-opacity:0"></stop>
		</linearGradient>
		<path style="fill:url(#SVGID_00000114785784116206069180000018377963951175819910_);" d="M199.82,281.86
			c-10.92,1.91-22.15,0.99-32.63-2.66c-21.7-7.35-38.95-24.26-46.93-46c-3.97-10.5-5.25-21.86-3.72-33
			c2.19,10.41,5.72,20.47,10.54,29.92c9.54,18.28,24.56,33.03,42.9,42.08c9.47,4.56,19.51,7.81,29.84,9.67H199.82z"></path>
		
			<linearGradient id="SVGID_00000085946602006206937300000000103022289125544322_" gradientUnits="userSpaceOnUse" x1="136.3453" y1="-2285.9282" x2="185.8246" y2="-2230.9749" gradientTransform="matrix(1 0 0 1 0 2497.27)">
			<stop offset="0" style="stop-color:#EBEBEB;stop-opacity:0"></stop>
			<stop offset="0.3" style="stop-color:#EBEBEB"></stop>
			<stop offset="0.5" style="stop-color:#EBEBEB"></stop>
			<stop offset="0.7" style="stop-color:#EBEBEB"></stop>
			<stop offset="1" style="stop-color:#EBEBEB;stop-opacity:0"></stop>
		</linearGradient>
		<path style="fill:url(#SVGID_00000085946602006206937300000000103022289125544322_);" d="M199.82,262.52
			c-16.4,3.98-34.92-2.2-47.53-14.38c-12.68-12.11-19.75-30.56-16.66-47.38c2.22,7.76,5.32,15.24,9.21,22.28
			c7.64,13.42,18.94,24.28,32.54,31.33c7.15,3.57,14.67,6.32,22.42,8.15H199.82z"></path>
		
			<linearGradient id="SVGID_00000015327804055004505810000009436543394725943712_" gradientUnits="userSpaceOnUse" x1="155.4451" y1="-2289.3311" x2="189.6625" y2="-2250.5364" gradientTransform="matrix(1 0 0 1 0 2497.27)">
			<stop offset="0" style="stop-color:#EBEBEB;stop-opacity:0"></stop>
			<stop offset="0.3" style="stop-color:#EBEBEB"></stop>
			<stop offset="0.5" style="stop-color:#EBEBEB"></stop>
			<stop offset="0.7" style="stop-color:#EBEBEB"></stop>
			<stop offset="1" style="stop-color:#EBEBEB;stop-opacity:0"></stop>
		</linearGradient>
		<path style="fill:url(#SVGID_00000015327804055004505810000009436543394725943712_);" d="M199.82,243.18
			c-11.33,3.97-24.83-0.04-33.87-8.56c-9.13-8.43-14.19-21.75-11.19-33.54c2.18,5.12,4.8,10.03,7.81,14.69
			c5.65,8.61,13.26,15.71,22.17,20.74c4.83,2.66,9.87,4.91,15.08,6.69L199.82,243.18z"></path>
		
			<linearGradient id="SVGID_00000118365790525590076360000015611073407242428852_" gradientUnits="userSpaceOnUse" x1="229.1967" y1="-2139.7227" x2="364.7471" y2="-2264.2324" gradientTransform="matrix(1 0 0 1 0 2497.27)">
			<stop offset="0" style="stop-color:#EBEBEB;stop-opacity:0"></stop>
			<stop offset="0.3" style="stop-color:#EBEBEB"></stop>
			<stop offset="0.5" style="stop-color:#EBEBEB"></stop>
			<stop offset="0.7" style="stop-color:#EBEBEB"></stop>
			<stop offset="1" style="stop-color:#EBEBEB;stop-opacity:0"></stop>
		</linearGradient>
		<path style="fill:url(#SVGID_00000118365790525590076360000015611073407242428852_);" d="M201.62,359.7
			c20.49-2.39,40.44-8.05,59.1-16.74c36.9-17.46,66.32-47.26,83.04-84.11c8.31-18.61,13.52-38.43,15.43-58.67
			c1.9,20.85-0.98,41.87-8.42,61.5c-15.02,40.21-46.67,72.22-87.03,88.1c-19.69,7.85-40.92,11.24-62.13,9.93L201.62,359.7z"></path>
		
			<linearGradient id="SVGID_00000057146115288349451060000015043729730000448910_" gradientUnits="userSpaceOnUse" x1="225.5467" y1="-2158.2253" x2="345.0042" y2="-2268.0137" gradientTransform="matrix(1 0 0 1 0 2497.27)">
			<stop offset="0" style="stop-color:#EBEBEB;stop-opacity:0"></stop>
			<stop offset="0.3" style="stop-color:#EBEBEB"></stop>
			<stop offset="0.5" style="stop-color:#EBEBEB"></stop>
			<stop offset="0.7" style="stop-color:#EBEBEB"></stop>
			<stop offset="1" style="stop-color:#EBEBEB;stop-opacity:0"></stop>
		</linearGradient>
		<path style="fill:url(#SVGID_00000057146115288349451060000015043729730000448910_);" d="M339.86,200.18
			c1.89,18.4-0.5,36.97-7,54.32c-13.12,35.6-41.13,63.95-76.89,77.84c-17.43,6.87-36.21,9.71-54.91,8.31
			c17.99-2.33,35.5-7.44,51.87-15.16c32.3-15.46,58.11-41.56,72.93-73.8c7.39-16.34,12.11-33.73,14-51.51H339.86z"></path>
		
			<linearGradient id="SVGID_00000004504369580933180110000010703824034602716290_" gradientUnits="userSpaceOnUse" x1="222.0048" y1="-2177.1487" x2="325.3034" y2="-2271.7542" gradientTransform="matrix(1 0 0 1 0 2497.27)">
			<stop offset="0" style="stop-color:#EBEBEB;stop-opacity:0"></stop>
			<stop offset="0.3" style="stop-color:#EBEBEB"></stop>
			<stop offset="0.5" style="stop-color:#EBEBEB"></stop>
			<stop offset="0.7" style="stop-color:#EBEBEB"></stop>
			<stop offset="1" style="stop-color:#EBEBEB;stop-opacity:0"></stop>
		</linearGradient>
		<path style="fill:url(#SVGID_00000004504369580933180110000010703824034602716290_);" d="M320.52,200.18
			c1.9,15.88,0,31.99-5.53,47.03c-11.17,30.93-35.4,55.56-66.43,67.51c-15.08,5.92-31.35,8.27-47.53,6.86
			c15.43-2.32,30.43-6.94,44.45-13.69c27.57-13.51,49.61-35.92,62.49-63.47c6.42-14.04,10.65-28.94,12.53-44.23H320.52z"></path>
		
			<linearGradient id="SVGID_00000084492049410161726130000017517615825050017470_" gradientUnits="userSpaceOnUse" x1="218.343" y1="-2195.6367" x2="305.5749" y2="-2275.5474" gradientTransform="matrix(1 0 0 1 0 2497.27)">
			<stop offset="0" style="stop-color:#EBEBEB;stop-opacity:0"></stop>
			<stop offset="0.3" style="stop-color:#EBEBEB"></stop>
			<stop offset="0.5" style="stop-color:#EBEBEB"></stop>
			<stop offset="0.7" style="stop-color:#EBEBEB"></stop>
			<stop offset="1" style="stop-color:#EBEBEB;stop-opacity:0"></stop>
		</linearGradient>
		<path style="fill:url(#SVGID_00000084492049410161726130000017517615825050017470_);" d="M301.18,200.18
			c1.9,13.42,0.49,27.09-4.12,39.86c-9.27,26.33-29.88,47.29-56.3,57.24c-12.81,4.93-26.63,6.74-40.3,5.25
			c12.94-2.24,25.48-6.31,37.24-12.08c22.95-11.52,41.38-30.23,52.35-53.2C295.56,225.48,299.31,213,301.18,200.18L301.18,200.18z"></path>
		
			<linearGradient id="SVGID_00000176024792437473650000000008087625248915782833_" gradientUnits="userSpaceOnUse" x1="214.7319" y1="-2214.3115" x2="285.884" y2="-2279.343" gradientTransform="matrix(1 0 0 1 0 2497.27)">
			<stop offset="0" style="stop-color:#EBEBEB;stop-opacity:0"></stop>
			<stop offset="0.3" style="stop-color:#EBEBEB"></stop>
			<stop offset="0.5" style="stop-color:#EBEBEB"></stop>
			<stop offset="0.7" style="stop-color:#EBEBEB"></stop>
			<stop offset="1" style="stop-color:#EBEBEB;stop-opacity:0"></stop>
		</linearGradient>
		<path style="fill:url(#SVGID_00000176024792437473650000000008087625248915782833_);" d="M281.84,200.18
			c1.91,10.92,0.99,22.15-2.66,32.63c-7.35,21.7-24.26,38.95-46,46.93c-10.5,3.97-21.86,5.25-33,3.72
			c10.41-2.19,20.47-5.72,29.92-10.54c18.28-9.54,33.03-24.56,42.08-42.9c4.56-9.47,7.81-19.51,9.67-29.84V200.18z"></path>
		
			<linearGradient id="SVGID_00000067955995782406741130000001134980634434442425_" gradientUnits="userSpaceOnUse" x1="211.3449" y1="-2233.6196" x2="266.2853" y2="-2283.0986" gradientTransform="matrix(1 0 0 1 0 2497.27)">
			<stop offset="0" style="stop-color:#EBEBEB;stop-opacity:0"></stop>
			<stop offset="0.3" style="stop-color:#EBEBEB"></stop>
			<stop offset="0.5" style="stop-color:#EBEBEB"></stop>
			<stop offset="0.7" style="stop-color:#EBEBEB"></stop>
			<stop offset="1" style="stop-color:#EBEBEB;stop-opacity:0"></stop>
		</linearGradient>
		<path style="fill:url(#SVGID_00000067955995782406741130000001134980634434442425_);" d="M262.51,200.18
			c3.98,16.38-2.2,34.92-14.38,47.53c-12.1,12.68-30.56,19.75-47.38,16.66c7.76-2.22,15.24-5.32,22.28-9.21
			c13.4-7.64,24.28-18.94,31.33-32.54c3.57-7.15,6.32-14.67,8.15-22.42V200.18z"></path>
		
			<linearGradient id="SVGID_00000153663442459322435540000003546812329395787175_" gradientUnits="userSpaceOnUse" x1="207.9233" y1="-2252.7126" x2="246.718" y2="-2286.9299" gradientTransform="matrix(1 0 0 1 0 2497.27)">
			<stop offset="0" style="stop-color:#EBEBEB;stop-opacity:0"></stop>
			<stop offset="0.3" style="stop-color:#EBEBEB"></stop>
			<stop offset="0.5" style="stop-color:#EBEBEB"></stop>
			<stop offset="0.7" style="stop-color:#EBEBEB"></stop>
			<stop offset="1" style="stop-color:#EBEBEB;stop-opacity:0"></stop>
		</linearGradient>
		<path style="fill:url(#SVGID_00000153663442459322435540000003546812329395787175_);" d="M243.17,200.18
			c3.97,11.33-0.04,24.83-8.56,33.87c-8.43,9.13-21.75,14.19-33.54,11.19c5.12-2.18,10.03-4.8,14.69-7.81
			c8.61-5.65,15.72-13.26,20.74-22.17c2.66-4.83,4.91-9.87,6.69-15.08L243.17,200.18z"></path>
		
			<linearGradient id="SVGID_00000060721821710403953140000017780419569697652909_" gradientUnits="userSpaceOnUse" x1="232.9856" y1="-2462.2021" x2="357.8118" y2="-2326.6123" gradientTransform="matrix(1 0 0 1 0 2497.27)">
			<stop offset="0" style="stop-color:#EBEBEB;stop-opacity:0"></stop>
			<stop offset="0.3" style="stop-color:#EBEBEB"></stop>
			<stop offset="0.5" style="stop-color:#EBEBEB"></stop>
			<stop offset="0.7" style="stop-color:#EBEBEB"></stop>
			<stop offset="1" style="stop-color:#EBEBEB;stop-opacity:0"></stop>
		</linearGradient>
		<path style="fill:url(#SVGID_00000060721821710403953140000017780419569697652909_);" d="M359.71,198.53
			c-2.4-20.54-8.05-40.55-16.75-59.24c-17.46-36.99-47.26-66.48-84.09-83.24c-18.61-8.34-38.43-13.56-58.67-15.47
			c20.85-1.9,41.87,0.98,61.5,8.43c40.21,15.06,72.22,46.78,88.1,87.23c7.85,19.75,11.25,41.02,9.93,62.27L359.71,198.53z"></path>
		
			<linearGradient id="SVGID_00000078726701296136707850000013466584959091802001_" gradientUnits="userSpaceOnUse" x1="229.202" y1="-2442.4055" x2="339.2675" y2="-2322.9219" gradientTransform="matrix(1 0 0 1 0 2497.27)">
			<stop offset="0" style="stop-color:#EBEBEB;stop-opacity:0"></stop>
			<stop offset="0.3" style="stop-color:#EBEBEB"></stop>
			<stop offset="0.5" style="stop-color:#EBEBEB"></stop>
			<stop offset="0.7" style="stop-color:#EBEBEB"></stop>
			<stop offset="1" style="stop-color:#EBEBEB;stop-opacity:0"></stop>
		</linearGradient>
		<path style="fill:url(#SVGID_00000078726701296136707850000013466584959091802001_);" d="M200.19,59.96
			c18.4-1.9,36.97,0.51,54.32,7.03c35.6,13.16,63.95,41.22,77.84,77.07c6.87,17.46,9.71,36.29,8.31,55.05
			c-2.33-18.03-7.44-35.58-15.16-52c-15.46-32.38-41.56-58.24-73.8-73.1c-16.34-7.4-33.73-12.14-51.52-14.04L200.19,59.96z"></path>
		
			<linearGradient id="SVGID_00000101822916819797510760000015940992637458514877_" gradientUnits="userSpaceOnUse" x1="225.4769" y1="-2422.666" x2="320.3332" y2="-2319.3545" gradientTransform="matrix(1 0 0 1 0 2497.27)">
			<stop offset="0" style="stop-color:#EBEBEB;stop-opacity:0"></stop>
			<stop offset="0.3" style="stop-color:#EBEBEB"></stop>
			<stop offset="0.5" style="stop-color:#EBEBEB"></stop>
			<stop offset="0.7" style="stop-color:#EBEBEB"></stop>
			<stop offset="1" style="stop-color:#EBEBEB;stop-opacity:0"></stop>
		</linearGradient>
		<path style="fill:url(#SVGID_00000101822916819797510760000015940992637458514877_);" d="M200.19,79.35
			c15.88-1.9,31.99,0,47.03,5.54c30.93,11.2,55.56,35.48,67.51,66.57c5.92,15.12,8.27,31.43,6.86,47.63
			c-2.32-15.47-6.94-30.5-13.69-44.57c-13.52-27.64-35.92-49.73-63.49-62.63c-14.04-6.44-28.94-10.67-44.23-12.56L200.19,79.35z"></path>
		
			<linearGradient id="SVGID_00000010292102503594200090000010970472906255504788_" gradientUnits="userSpaceOnUse" x1="221.6844" y1="-2402.8987" x2="301.8195" y2="-2315.6538" gradientTransform="matrix(1 0 0 1 0 2497.27)">
			<stop offset="0" style="stop-color:#EBEBEB;stop-opacity:0"></stop>
			<stop offset="0.3" style="stop-color:#EBEBEB"></stop>
			<stop offset="0.5" style="stop-color:#EBEBEB"></stop>
			<stop offset="0.7" style="stop-color:#EBEBEB"></stop>
			<stop offset="1" style="stop-color:#EBEBEB;stop-opacity:0"></stop>
		</linearGradient>
		<path style="fill:url(#SVGID_00000010292102503594200090000010970472906255504788_);" d="M200.19,98.73
			c13.42-1.9,27.09-0.49,39.86,4.13c26.33,9.3,47.29,29.96,57.24,56.43c4.93,12.83,6.74,26.7,5.25,40.39
			c-2.24-12.97-6.31-25.54-12.08-37.32c-11.52-23.02-30.23-41.47-53.2-52.49C225.49,104.36,213.01,100.62,200.19,98.73L200.19,98.73
			z"></path>
		
			<linearGradient id="SVGID_00000170253349384370652510000016730502635136966530_" gradientUnits="userSpaceOnUse" x1="217.8977" y1="-2383.1643" x2="283.1139" y2="-2311.999" gradientTransform="matrix(1 0 0 1 0 2497.27)">
			<stop offset="0" style="stop-color:#EBEBEB;stop-opacity:0"></stop>
			<stop offset="0.3" style="stop-color:#EBEBEB"></stop>
			<stop offset="0.5" style="stop-color:#EBEBEB"></stop>
			<stop offset="0.7" style="stop-color:#EBEBEB"></stop>
			<stop offset="1" style="stop-color:#EBEBEB;stop-opacity:0"></stop>
		</linearGradient>
		<path style="fill:url(#SVGID_00000170253349384370652510000016730502635136966530_);" d="M200.19,118.12
			c10.92-1.91,22.15-0.99,32.63,2.68c21.7,7.36,38.95,24.31,46.93,46.1c3.97,10.53,5.25,21.91,3.72,33.08
			c-2.19-10.43-5.72-20.51-10.54-29.98c-9.54-18.34-24.56-33.11-42.9-42.18c-9.47-4.56-19.51-7.84-29.84-9.7L200.19,118.12z"></path>
		
			<linearGradient id="SVGID_00000101071426034204619770000002866811204052719285_" gradientUnits="userSpaceOnUse" x1="214.1509" y1="-2363.5356" x2="263.7621" y2="-2308.5686" gradientTransform="matrix(1 0 0 1 0 2497.27)">
			<stop offset="0" style="stop-color:#EBEBEB;stop-opacity:0"></stop>
			<stop offset="0.3" style="stop-color:#EBEBEB"></stop>
			<stop offset="0.5" style="stop-color:#EBEBEB"></stop>
			<stop offset="0.7" style="stop-color:#EBEBEB"></stop>
			<stop offset="1" style="stop-color:#EBEBEB;stop-opacity:0"></stop>
		</linearGradient>
		<path style="fill:url(#SVGID_00000101071426034204619770000002866811204052719285_);" d="M200.19,137.5
			c16.4-3.98,34.92,2.2,47.53,14.42c12.68,12.14,19.75,30.64,16.66,47.49c-2.22-7.78-5.32-15.28-9.21-22.33
			c-7.64-13.44-18.94-24.35-32.54-31.39c-7.15-3.59-14.67-6.33-22.42-8.17L200.19,137.5z"></path>
		
			<linearGradient id="SVGID_00000117659164435515206660000004980092231913710209_" gradientUnits="userSpaceOnUse" x1="210.324" y1="-2343.9324" x2="244.6337" y2="-2305.1245" gradientTransform="matrix(1 0 0 1 0 2497.27)">
			<stop offset="0" style="stop-color:#EBEBEB;stop-opacity:0"></stop>
			<stop offset="0.3" style="stop-color:#EBEBEB"></stop>
			<stop offset="0.5" style="stop-color:#EBEBEB"></stop>
			<stop offset="0.7" style="stop-color:#EBEBEB"></stop>
			<stop offset="1" style="stop-color:#EBEBEB;stop-opacity:0"></stop>
		</linearGradient>
		<path style="fill:url(#SVGID_00000117659164435515206660000004980092231913710209_);" d="M200.19,156.87
			c11.33-3.97,24.83,0.04,33.87,8.59c9.13,8.44,14.19,21.8,11.19,33.62c-2.19-5.13-4.8-10.05-7.81-14.72
			c-5.65-8.63-13.26-15.75-22.17-20.78c-4.83-2.68-9.87-4.92-15.08-6.7L200.19,156.87z"></path>
	</g>
</g>
</svg>