<svg xmlns="http://www.w3.org/2000/svg" width="17" height="16" viewBox="0 0 17 16" fill="none">
  <path d="M12.7578 0H4.25781C2.18674 0 0.507812 1.67893 0.507812 3.75V12.25C0.507812 14.3211 2.18674 16 4.25781 16H12.7578C14.8289 16 16.5078 14.3211 16.5078 12.25V3.75C16.5078 1.67893 14.8289 0 12.7578 0Z" fill="#F4F2ED"/>
  <path d="M8.0985 1.75338C8.07162 1.75581 7.98606 1.76437 7.90906 1.77044C6.13369 1.9305 4.47069 2.8885 3.41738 4.36088C2.83094 5.17956 2.45575 6.10819 2.31406 7.09188C2.264 7.43525 2.25787 7.53669 2.25787 8.00219C2.25787 8.46775 2.264 8.56919 2.31412 8.9125C2.65375 11.2598 4.32413 13.2319 6.5895 13.9626C6.99519 14.0934 7.42281 14.1826 7.90912 14.2363C8.09856 14.2571 8.91719 14.2571 9.10662 14.2363C9.94606 14.1434 10.6572 13.9357 11.3586 13.5777C11.4661 13.5227 11.4869 13.5081 11.4722 13.4959C11.4624 13.4885 11.0042 12.8739 10.4544 12.131L9.45487 10.7808L8.20237 8.92719C7.51325 7.90813 6.94631 7.07475 6.94137 7.07475C6.9365 7.07356 6.93162 7.89713 6.92919 8.90275C6.9255 10.6635 6.92431 10.7344 6.90231 10.7759C6.87056 10.8358 6.84613 10.8602 6.79475 10.8871C6.75569 10.9066 6.72144 10.9103 6.53694 10.9103H6.32556L6.26931 10.8749C6.23449 10.8531 6.2062 10.8222 6.18744 10.7857L6.16181 10.7307L6.16794 5.82969L6.20581 5.782C6.22537 5.75638 6.26694 5.72337 6.29625 5.7075C6.34631 5.68306 6.36588 5.68062 6.57725 5.68062C6.82656 5.68062 6.86806 5.69038 6.93288 5.76125C6.95119 5.78081 7.62931 6.80231 8.44069 8.03275C9.2621 9.27818 10.084 10.5233 10.9064 11.7681L11.8962 13.2674L11.9463 13.2344C12.3898 12.946 12.8591 12.5354 13.2305 12.1077C14.0211 11.1999 14.5306 10.0929 14.7017 8.9125C14.7518 8.56919 14.7579 8.46775 14.7579 8.00219C14.7579 7.53663 14.7518 7.43525 14.7017 7.09188C14.362 4.74463 12.6916 2.7725 10.4263 2.04181C10.0267 1.91225 9.6015 1.82306 9.12494 1.76931C9.00762 1.75706 8.19987 1.74363 8.0985 1.75338ZM10.6572 5.534C10.7158 5.56331 10.7635 5.6195 10.7806 5.67812C10.7904 5.70994 10.7928 6.38931 10.7904 7.92031L10.7867 10.1173L10.3994 9.52344L10.0108 8.92962V7.33262C10.0108 6.30012 10.0157 5.71969 10.023 5.69156C10.0426 5.62319 10.0853 5.56944 10.144 5.53762C10.1941 5.512 10.2124 5.5095 10.4043 5.5095C10.5851 5.5095 10.6169 5.512 10.6572 5.534Z" fill="black"/>
</svg>