<svg xmlns="http://www.w3.org/2000/svg" width="17" height="16" viewBox="0 0 17 16" fill="none">
  <g clip-path="url(#clip0_72_186)">
    <path d="M12.7578 0H4.25781C2.18674 0 0.507812 1.67893 0.507812 3.75V12.25C0.507812 14.3211 2.18674 16 4.25781 16H12.7578C14.8289 16 16.5078 14.3211 16.5078 12.25V3.75C16.5078 1.67893 14.8289 0 12.7578 0Z" fill="#242938"/>
    <path d="M8.5078 9.18454C9.1518 9.18454 9.6738 8.66248 9.6738 8.01854C9.6738 7.3746 9.1518 6.85254 8.5078 6.85254C7.8638 6.85254 7.3418 7.3746 7.3418 8.01854C7.3418 8.66248 7.86386 9.18454 8.5078 9.18454Z" fill="#00D8FF"/>
    <path d="M8.50794 5.64771C10.0734 5.64771 11.5277 5.87233 12.6243 6.24989C13.9455 6.70471 14.7578 7.39414 14.7578 8.01846C14.7578 8.66902 13.8969 9.40146 12.4781 9.87152C11.4055 10.2269 9.994 10.4124 8.50794 10.4124C6.98431 10.4124 5.5415 10.2383 4.45675 9.86758C3.08437 9.39852 2.25781 8.65664 2.25781 8.01846C2.25781 7.39921 3.03344 6.71508 4.33606 6.26096C5.43669 5.87721 6.92688 5.64771 8.50769 5.64771H8.50794Z" stroke="#00D8FF" stroke-width="0.556938"/>
    <path d="M6.44425 6.83987C7.22637 5.48375 8.14743 4.33612 9.02231 3.57487C10.0763 2.65756 11.0794 2.29831 11.6202 2.61012C12.1837 2.93512 12.3882 4.04687 12.0866 5.51075C11.8588 6.61744 11.3142 7.93281 10.5717 9.22019C9.81056 10.5401 8.939 11.7029 8.07606 12.4572C6.98412 13.4117 5.92843 13.7571 5.37562 13.4383C4.83918 13.1292 4.63406 12.1154 4.89143 10.7601C5.10887 9.61487 5.65456 8.20931 6.444 6.83987H6.44425Z" stroke="#00D8FF" stroke-width="0.556938"/>
    <path d="M6.44611 9.22366C5.66179 7.86904 5.12779 6.49766 4.90492 5.35954C4.63661 3.98822 4.82629 2.93979 5.36661 2.62704C5.92967 2.30104 6.99486 2.67916 8.11248 3.67154C8.95748 4.42179 9.82517 5.55035 10.5697 6.83647C11.3331 8.1551 11.9052 9.49103 12.1278 10.6153C12.4094 12.038 12.1815 13.1251 11.6292 13.4448C11.0933 13.755 10.1126 13.4266 9.06692 12.5267C8.18342 11.7665 7.23817 10.5918 6.44611 9.22366Z" stroke="#00D8FF" stroke-width="0.556938"/>
  </g>
  <defs>
    <clipPath id="clip0_72_186">
      <rect width="16" height="16" fill="white" transform="translate(0.507812)"/>
    </clipPath>
  </defs>
</svg>