<svg xmlns="http://www.w3.org/2000/svg" width="15" height="16" viewBox="0 0 15 16" fill="none">
  <path d="M7.85969 0.103157C7.74486 0.0373725 7.61483 0.00276223 7.4825 0.00276223C7.35017 0.00276223 7.22014 0.0373725 7.10531 0.103157L0.877813 3.72003C0.640938 3.85403 0.507812 4.10691 0.507812 4.37503V11.6235C0.507812 11.8914 0.655688 12.1444 0.877563 12.2785L7.10506 15.8953C7.2199 15.9611 7.34995 15.9957 7.48231 15.9957C7.61467 15.9957 7.74472 15.9611 7.85956 15.8953L14.0871 12.2784C14.3238 12.1444 14.4568 11.8914 14.4568 11.6234V4.37503C14.4568 4.10703 14.3089 3.85416 14.0871 3.72003L7.85969 0.103157Z" fill="url(#paint0_linear_72_263)"/>
  <path d="M14.1021 3.72003L7.84506 0.103157C7.78367 0.0718013 7.71921 0.0468771 7.65269 0.0287823L0.641188 12.0998C0.699271 12.171 0.76937 12.2315 0.848312 12.2785L7.10506 15.8953C7.28256 15.9994 7.48994 16.0293 7.68231 15.9697L14.2648 3.85403C14.2216 3.79743 14.1659 3.75157 14.1021 3.72003Z" fill="url(#paint1_linear_72_263)"/>
  <path d="M14.1022 12.2782C14.2797 12.174 14.4128 11.9954 14.4719 11.8019L7.62319 0.0135323C7.44569 -0.0162177 7.25331 -0.00134265 7.09069 0.102907L0.877938 3.70491L7.57869 15.9993C7.66744 15.9843 7.77119 15.9545 7.85994 15.9099L14.1022 12.2782Z" fill="url(#paint2_linear_72_263)"/>
  <defs>
    <linearGradient id="paint0_linear_72_263" x1="10.0289" y1="2.79508" x2="4.34123" y2="14.3331" gradientUnits="userSpaceOnUse">
      <stop stop-color="#3F873F"/>
      <stop offset="0.33" stop-color="#3F8B3D"/>
      <stop offset="0.637" stop-color="#3E9638"/>
      <stop offset="0.934" stop-color="#3DA92E"/>
      <stop offset="1" stop-color="#3DAE2B"/>
    </linearGradient>
    <linearGradient id="paint1_linear_72_263" x1="6.55022" y1="8.83286" x2="22.5525" y2="-3.18979" gradientUnits="userSpaceOnUse">
      <stop offset="0.138" stop-color="#3F873F"/>
      <stop offset="0.402" stop-color="#52A044"/>
      <stop offset="0.713" stop-color="#64B749"/>
      <stop offset="0.908" stop-color="#6ABF4B"/>
    </linearGradient>
    <linearGradient id="paint2_linear_72_263" x1="0.27989" y1="7.99683" x2="14.6899" y2="7.99683" gradientUnits="userSpaceOnUse">
      <stop offset="0.092" stop-color="#6ABF4B"/>
      <stop offset="0.287" stop-color="#64B749"/>
      <stop offset="0.598" stop-color="#52A044"/>
      <stop offset="0.862" stop-color="#3F873F"/>
    </linearGradient>
  </defs>
</svg>