<svg xmlns="http://www.w3.org/2000/svg" width="35" height="42" viewBox="0 0 35 42" fill="none">
  <path fill-rule="evenodd" clip-rule="evenodd" d="M11.6875 39.7453L4.1875 34.3853C2.135 32.9203 1.1075 32.1853 0.555 31.1103C0.0025003 30.0353 0 28.7703 0 26.2503V16.5428C0 15.7378 -7.63685e-08 15.0628 0.0174999 14.4803L15 25.1803V41.9728C14.1075 41.4728 13.0675 40.7303 11.6875 39.7453ZM20 41.9703C20.8925 41.4703 21.9325 40.7253 23.3125 39.7403L30.8125 34.3828C32.865 32.9178 33.8925 32.1828 34.445 31.1078C34.9975 30.0328 35 28.7703 35 26.2503V16.5428C35 15.7378 35 15.0628 34.9825 14.4803L20 25.1803V41.9703ZM32.82 9.87778L17.5 20.8228L2.18 9.88028C2.71 9.46028 3.3675 8.99028 4.1875 8.40528L11.6875 3.04778C14.495 1.04278 15.9 0.0402832 17.5 0.0402832C19.1 0.0402832 20.505 1.04028 23.3125 3.04778L30.8125 8.40528C31.635 8.99028 32.29 9.45778 32.82 9.87778Z" fill="white"/>
</svg>