<svg xmlns="http://www.w3.org/2000/svg" width="53" height="50" viewBox="0 0 53 50" fill="none">
  <path d="M44.6971 17.8291L44.0821 19.2441C43.9859 19.4745 43.8238 19.6713 43.6161 19.8097C43.4083 19.9482 43.1642 20.0221 42.9146 20.0221C42.6649 20.0221 42.4208 19.9482 42.2131 19.8097C42.0053 19.6713 41.8432 19.4745 41.7471 19.2441L41.1321 17.8291C40.0508 15.3259 38.0705 13.3189 35.5821 12.2041L33.6846 11.3566C33.4544 11.2507 33.2594 11.081 33.1227 10.8676C32.9859 10.6543 32.9133 10.4062 32.9133 10.1528C32.9133 9.89941 32.9859 9.65133 33.1227 9.43798C33.2594 9.22462 33.4544 9.05494 33.6846 8.94905L35.4771 8.15155C38.0281 7.005 40.0422 4.92375 41.1046 2.33655L41.7371 0.809051C41.83 0.572435 41.992 0.369295 42.202 0.226113C42.4121 0.0829305 42.6604 0.00634766 42.9146 0.00634766C43.1688 0.00634766 43.4171 0.0829305 43.6271 0.226113C43.8371 0.369295 43.9992 0.572435 44.0921 0.809051L44.7246 2.33405C45.7858 4.92174 47.799 7.00388 50.3496 8.15155L52.1446 8.95155C52.3741 9.05775 52.5684 9.22741 52.7046 9.44049C52.8408 9.65356 52.9131 9.90117 52.9131 10.1541C52.9131 10.4069 52.8408 10.6545 52.7046 10.8676C52.5684 11.0807 52.3741 11.2504 52.1446 11.3566L50.2446 12.2015C47.7566 13.3175 45.7772 15.3254 44.6971 17.8291ZM15.4146 5.00905H27.9146V12.5091H20.4146V40.0091C20.4141 42.2103 19.6873 44.3499 18.3469 46.096C17.0065 47.8421 15.1275 49.0971 13.0011 49.6665C10.8748 50.2359 8.62 50.0877 6.58643 49.2451C4.55287 48.4024 2.85416 46.9123 1.75375 45.0058C0.65334 43.0994 0.212722 40.8831 0.500226 38.7007C0.78773 36.5183 1.78729 34.4918 3.34389 32.9353C4.9005 31.3789 6.92716 30.3796 9.10958 30.0923C11.292 29.8051 13.5082 30.2459 15.4146 31.3465V5.00905ZM42.9146 31.3465V25.0091H47.9146V40.0091C47.9141 42.2103 47.1873 44.3499 45.8469 46.096C44.5065 47.8421 42.6275 49.0971 40.5011 49.6665C38.3748 50.2359 36.12 50.0877 34.0864 49.2451C32.0529 48.4024 30.3542 46.9123 29.2537 45.0058C28.1533 43.0994 27.7127 40.8831 28.0002 38.7007C28.2877 36.5183 29.2873 34.4918 30.8439 32.9353C32.4005 31.3789 34.4272 30.3796 36.6096 30.0923C38.792 29.8051 41.0082 30.2459 42.9146 31.3465Z" fill="white"/>
</svg>