<svg xmlns="http://www.w3.org/2000/svg" width="50" height="51" viewBox="0 0 50 51" fill="none">
  <path d="M8.9375 0.185804C9.25579 0.338844 9.52438 0.578664 9.71235 0.877652C9.90033 1.17664 10 1.52264 10 1.8758C10 3.9508 10.78 5.1458 11.7575 6.6008L11.83 6.7058C12.66 7.9408 13.75 9.55831 13.75 11.8758C13.75 13.6992 13.0257 15.4479 11.7364 16.7372C10.447 18.0265 8.69836 18.7508 6.875 18.7508C5.05164 18.7508 3.30295 18.0265 2.01364 16.7372C0.724329 15.4479 0 13.6992 0 11.8758C0 10.9558 -2.38419e-07 9.3733 0.9575 7.3308C1.895 5.3308 3.6775 3.0333 6.9525 0.410805C7.22852 0.190015 7.56133 0.0517415 7.91254 0.0119315C8.26375 -0.0278785 8.61906 0.032396 8.9375 0.185804ZM6.875 22.5008C8.98058 22.5044 11.0393 21.8794 12.7875 20.7058C13.44 22.5408 13.75 24.9808 13.75 28.1383C13.75 32.4183 13.175 37.5583 12.2375 41.6633C11.7725 43.7033 11.195 45.5858 10.5075 46.9983C10.1844 47.7019 9.75432 48.3513 9.2325 48.9233C8.7175 49.4508 7.925 50.0133 6.875 50.0133C5.825 50.0133 5.0325 49.4508 4.52 48.9233C3.99818 48.3513 3.56809 47.7019 3.245 46.9983C2.555 45.5833 1.9775 43.7033 1.5125 41.6608C0.536458 37.2178 0.0295136 32.6846 0 28.1358C0 24.9808 0.31 22.5408 0.9625 20.7058C2.71068 21.8794 4.76942 22.5044 6.875 22.5008ZM16.21 30.1933C17.4132 30.7221 18.6922 31.0579 20 31.1883V25.6258C20 24.5588 20.2102 23.5023 20.6185 22.5165C21.0268 21.5307 21.6253 20.635 22.3798 19.8806C23.9035 18.3568 25.9701 17.5008 28.125 17.5008H33.6875C33.4822 15.4545 32.7751 13.4905 31.6291 11.7828C30.483 10.0752 28.9333 8.67669 27.1173 7.71135C25.3014 6.74601 23.2753 6.24364 21.2187 6.24878C19.1621 6.25392 17.1386 6.7664 15.3275 7.74081C14.9384 6.92 14.48 6.13383 13.9575 5.3908L13.8325 5.2058L13.385 4.5258C15.7666 3.20849 18.4409 2.51045 21.1625 2.49576C23.8841 2.48107 26.5659 3.1502 28.9615 4.44174C31.3572 5.73327 33.3901 7.60584 34.8737 9.88758C36.3573 12.1693 37.244 14.7872 37.4525 17.5008H41.875C42.942 17.5008 43.9985 17.711 44.9843 18.1193C45.9701 18.5276 46.8658 19.1261 47.6202 19.8806C48.3747 20.635 48.9732 21.5307 49.3815 22.5165C49.7898 23.5023 50 24.5588 50 25.6258V39.3758C50 40.4428 49.7898 41.4993 49.3815 42.4851C48.9732 43.4709 48.3747 44.3666 47.6202 45.121C46.8658 45.8755 45.9701 46.474 44.9843 46.8823C43.9985 47.2906 42.942 47.5008 41.875 47.5008H28.125C25.9701 47.5008 23.9035 46.6448 22.3798 45.121C20.856 43.5973 20 41.5307 20 39.3758V34.9533C18.619 34.848 17.2571 34.5665 15.9475 34.1158C16.0725 32.7908 16.1625 31.4708 16.21 30.1933ZM41.875 21.2508H37.31C36.7785 24.6563 35.1786 27.8049 32.7414 30.2422C30.3041 32.6794 27.1555 34.2793 23.75 34.8108V39.3758C23.75 41.7908 25.71 43.7508 28.125 43.7508H41.875C43.0353 43.7508 44.1481 43.2899 44.9686 42.4694C45.7891 41.6489 46.25 40.5361 46.25 39.3758V25.6258C46.25 24.4655 45.7891 23.3527 44.9686 22.5322C44.1481 21.7117 43.0353 21.2508 41.875 21.2508ZM23.75 31.0008C26.1509 30.5079 28.3544 29.3213 30.0874 27.5883C31.8205 25.8552 33.0071 23.6517 33.5 21.2508H28.125C26.9647 21.2508 25.8519 21.7117 25.0314 22.5322C24.2109 23.3527 23.75 24.4655 23.75 25.6258V31.0008Z" fill="white"/>
</svg>